<svg id="Capa_1" enable-background="new 0 0 512 512" height="512" viewBox="0 0 512 512" width="512" xmlns="http://www.w3.org/2000/svg"><g><path d="m91.479 256h-31.479c-33.091 0-60-26.909-60-60s26.909-60 60-60c16.025 0 31.084 6.24 42.422 17.578l-21.211 21.211c-5.669-5.669-13.198-8.789-21.211-8.789-16.538 0-30 13.462-30 30s13.462 30 30 30h31.479z" fill="#ff9f40"/><path d="m472.841 256c-2.285-6.431-5.054-12.686-8.276-18.721l41.279-41.279-10.605-10.605c-33.34-33.369-85.4-40.107-125.977-17.08-8.379-1.568-15.894-2.315-23.262-2.315l-90 .07-60.615.048c-67.808 2.782-124.721 51.225-133.949 115.18-6.372 44.033 9.272 87.803 41.968 118.154l19.291 96.548h88.305v-60h45 75v60h87.305l19.292-96.533c16.772-15.147 37.47-23.467 58.403-23.467h16v-120z" fill="#ffbe40"/><path d="m331 496h87.305l19.292-96.533c16.772-15.147 37.47-23.467 58.403-23.467h16v-120h-39.159c-2.285-6.431-5.054-12.686-8.276-18.721l41.279-41.279-10.605-10.605c-33.34-33.369-85.4-40.107-125.977-17.08-8.379-1.568-15.894-2.315-23.262-2.315l-90 .07v269.93h75z" fill="#ff9f40"/><path d="m256 226h-75v30h75 75v-30z" fill="#4d3535"/><path d="m256 226h75v30h-75z" fill="#331e1e"/><path d="m391 256h30v30h-30z" fill="#331e1e"/><path d="m301 46h30v60h-30z" fill="#e1e6f0"/><path d="m181 46h30v60h-30z" fill="#f3f5f9"/><path d="m256 16h-15v60h15 15v-60z" fill="#f3f5f9"/><path d="m256 16h15v60h-15z" fill="#e1e6f0"/><circle cx="256" cy="181" fill="#ffdf40" r="75"/><path d="m331 181c0-41.353-33.647-75-75-75v150c41.353 0 75-33.647 75-75z" fill="#ffbe40"/></g></svg>