<svg className="Blob" viewBox="0 0 200 200" xmlns="http://www.w3.org/2000/svg">
  <path fill="#BAE6FF" d="M33.1,-59.4C44.6,-50.8,56.7,-45.2,67.4,-35.8C78.1,-26.5,87.5,-13.2,85.3,-1.3C83.2,10.7,69.5,21.5,59.3,31.8C49.1,42.2,42.5,52.1,33.2,59.4C23.9,66.6,12,71,0.7,69.9C-10.6,68.7,-21.2,61.8,-29.8,54.2C-38.4,46.6,-45,38.2,-51.5,29C-57.9,19.8,-64.3,9.9,-66.3,-1.2C-68.4,-12.3,-66.1,-24.5,-60.6,-35.5C-55.1,-46.4,-46.5,-56,-35.9,-65.1C-25.2,-74.2,-12.6,-82.8,-0.9,-81.3C10.8,-79.8,21.7,-68,33.1,-59.4Z" transform="translate(100 100)" />
</svg>