<svg xmlns="http://www.w3.org/2000/svg" viewBox="0 0 166 247" width="44" height="44">
  <title>peep-54</title>
  <desc>Created with Sketch.</desc>
  <g fill="none" fill-rule="evenodd" transform="translate(-35 -38)">
    <g transform="translate(31.056 135.053)">
      <path d="M163.580466,116.881437 C162.728846,112.070295 161.948213,107.246243 161.238776,102.411821 C160.902015,100.116619 160.573494,97.8193001 160.278142,95.5181719 C160.071311,93.9059218 159.756311,92.0623526 160.85279,90.8682971 C162.395677,89.1876884 163.797227,87.7491922 163.9861,85.3418223 C164.163776,83.0766723 163.398142,80.6075044 162.91941,78.4088085 C161.915466,73.7980866 160.665607,69.244295 159.284551,64.7336774 C157.881522,60.1508916 156.343072,55.6112797 154.782438,51.0803449 C153.323424,46.8440087 151.920818,42.5695779 150.020466,38.5050908 C146.413917,30.7917717 140.312508,25.0796913 132.771945,21.2655708 C130.896522,20.3170141 127.071424,16.9308234 125.112128,16.17274 C123.31086,15.475608 123.317297,17.5111318 121.544551,16.7443713 C120.127367,16.1314708 118.80779,15.314129 118.014269,13.9452614 C117.15272,12.4589353 114.992154,10.3800919 114.663211,8.64996008 C113.966239,4.98271556 114.721241,1.86142829 112.104903,-0.898740401 C109.782227,-3.34970755 106.660325,-5.02883486 103.430044,-5.93019649 C96.3238463,-7.91302278 86.8468041,-6.52680096 82.5593393,0.079022161 C80.5115224,3.23368206 79.795959,7.04674442 77.03279,9.62130753 C74.6199027,11.8693149 75.1598776,13.4062222 72.0348071,14.5647227 C71.8577649,14.6305417 67.0604097,13.6011154 66.8833674,13.6669344 C63.4646351,12.935094 60.1970858,14.9837638 57.0606069,16.17274 C52.384621,17.9447759 47.93279,20.2514067 43.7503252,22.9927397 C35.3167336,28.520696 28.0934942,35.6987853 22.1384942,43.8216219 C16.1342689,52.0113357 11.4756069,61.1908754 8.15849421,70.7848001 C7.35293083,73.1151342 6.62933928,75.4738277 5.99109984,77.8555896 C5.63384632,79.1884789 5.25208576,80.5711029 5.68708576,81.9357377 C6.0428604,83.0521225 6.83426885,83.8834323 7.76363505,84.5532631 C9.02342378,85.4613971 11.5503956,86.0516525 11.5011703,87.8780791 C11.4635646,89.2668406 10.9926491,90.7281935 10.76279,92.1004473 C10.4891984,93.7347075 10.2644097,95.3784915 10.039621,97.0199474 C9.01708576,104.491154 8.22124068,112.004476 7.86926885,119.539174 C7.52278998,126.957894 7.23525477,134.528358 7.74969139,141.944963 C7.78370547,142.434056 7.92948012,142.882937 8.16462097,143.262402 C7.94511392,143.346422 7.92821252,143.755728 8.20138153,143.813717 C8.39278998,143.854351 8.5837759,143.894774 8.77518435,143.935408 C9.17278998,144.236356 9.66863505,144.420903 10.2392689,144.438892 C10.6260998,144.451167 11.0127196,144.468521 11.399128,144.488415 C15.4768041,145.3411 19.5538463,146.14659 23.6847618,146.756528 C28.7061703,147.497892 33.7423674,148.102327 38.7941984,148.593748 C49.1748322,149.603256 59.4737055,149.268447 69.8680717,148.724328 C80.2463815,148.180844 90.6185646,148.053862 101.007649,148.324123 C111.405818,148.594806 121.800184,149.047286 132.200677,149.232468 C143.820184,149.439026 155.421945,149.12157 167.00786,148.197564 C168.596382,148.071005 169.579198,146.806686 169.265889,145.228298 C167.388776,135.771937 165.261522,126.378644 163.580466,116.881437 Z" fill="#D08B5B"/>
      <path d="M57.0606709,16.1726654 L57.2876329,16.0852687 C60.3547098,14.8865726 63.5470782,12.9526541 66.8834315,13.6668599 C67.0014429,13.6229867 69.1723423,14.0657508 70.6593352,14.3463948 L69.2479527,15.8201831 L66.7571562,16.2995771 C75.3500887,30.487021 85.5130753,37.580743 97.2461161,37.580743 C108.979157,37.580743 117.882302,30.487021 123.955552,16.2995771 L124.784265,16.0701634 C124.886653,16.093889 124.995638,16.1275565 125.112192,16.1726654 C127.071488,16.9307488 130.896586,20.3169395 132.772009,21.2654962 C140.312572,25.0796167 146.413981,30.7916972 150.02053,38.5050163 C151.857537,42.4340204 153.229428,46.5592053 154.636768,50.6565189 L154.782502,51.0802703 C156.343136,55.6112051 157.881586,60.150817 159.284615,64.7336028 C160.605625,69.0481066 161.806599,73.4021118 162.787139,77.8076571 L162.919474,78.4087339 C163.398206,80.6074299 164.16384,83.0765978 163.986164,85.3417477 C163.918876,86.199396 163.697674,86.934074 163.371001,87.6005386 L146.375289,93.7183931 L154.472281,148.964153 C147.055361,149.282275 139.63168,149.364492 132.200741,149.232394 C121.800248,149.047211 111.405882,148.594732 101.007713,148.324048 C90.9334494,148.061977 80.8750783,148.173439 70.8116022,148.675993 L68.2559587,148.806849 C58.4081501,149.299411 48.6379669,149.550966 38.7942625,148.593673 L38.1235048,148.52775 L38.1235048,148.52775 L38.1233985,140.44653 L41.581211,95.447673 L24.0576689,92.1478926 L6.85589904,83.7898003 C6.33615793,83.2700799 5.91908382,82.6634486 5.6871498,81.9356632 C5.28425828,80.6717555 5.58200286,79.3924164 5.91199223,78.1514527 L5.99116389,77.855515 C6.62940333,75.4737531 7.35299488,73.1150597 8.15855826,70.7847256 C11.4756709,61.1908008 16.1343329,52.0112611 22.1385583,43.8215473 C28.0935583,35.6987107 35.3167977,28.5206214 43.7503892,22.9926651 C47.932854,20.2513321 52.384685,17.9447013 57.0606709,16.1726654 Z" fill="#EC7495"/>
      <path d="M63.6412548,13.4342378 C64.7157618,13.3875294 65.8113956,13.5614706 66.8833674,13.6669344 C66.9767477,13.6760225 67.0122407,13.8201634 66.9070294,13.8421438 C64.9885611,14.2430753 63.0911205,14.7915822 61.2069234,15.3486248 L60.4001984,15.5874746 C58.2754801,16.2162417 56.2130858,16.8648757 54.1561843,17.7035137 C50.0567477,19.3748718 46.163297,21.6308249 42.5799872,24.2226135 C28.7816773,34.2027857 18.7950576,49.3130636 12.4929449,64.9574237 C10.781466,69.2059873 9.33132519,73.560226 8.1566773,77.9878033 C7.8710435,79.0650558 7.60231111,80.1465352 7.34752237,81.2313963 C7.27273364,81.5494785 6.94674773,82.3640225 7.12548012,82.689502 C7.28350829,82.9771497 7.89787449,83.1548953 8.18329702,83.3045313 L9.14691311,83.8043748 C11.0265348,84.7735075 14.1574909,86.3664979 14.471466,86.5217055 L14.9611446,86.7629177 C22.9704359,90.6908797 31.5282914,94.0217369 40.5412548,94.2522652 L40.6118181,93.482316 L40.6118181,93.482316 C41.0136491,89.2255098 41.5409731,84.946089 42.691959,80.8201086 C42.7538604,80.5984021 43.0359027,80.6732202 43.0616773,80.8701986 C43.7028745,85.7547153 43.4979449,90.6772749 43.2742125,95.5844061 C42.8780858,104.275553 42.3520294,112.961839 41.8844942,121.649604 C41.6504097,125.9956 41.3478745,130.338637 41.0747055,134.682308 C40.8011139,139.034645 40.7125928,143.4916 40.0878745,147.808007 C39.9486491,148.770073 38.8221703,149.293377 37.9690717,149.191929 C37.025128,149.07949 36.2990012,148.247827 36.2945646,147.294426 C36.2831562,144.77978 36.5990012,142.235545 36.7745646,139.72724 C36.9412548,137.344054 37.1201984,134.962136 37.3035787,132.580218 C37.9737196,123.887169 38.7446351,115.204265 39.4576632,106.515021 C39.7103393,103.433111 39.983297,100.353948 40.2642829,97.2749971 C30.716466,96.9670597 21.7965365,93.4292671 13.2870998,89.2956781 C13.1639308,92.0933219 12.866466,94.8858933 12.5785083,97.6719129 C11.7746351,105.446645 11.0658322,113.218418 10.5353393,121.017244 C10.267452,124.956179 10.072452,128.899976 9.9025928,132.844195 C9.81914209,134.7827 9.75111392,136.721627 9.69893083,138.661189 C9.68146604,139.307639 9.66569139,139.954183 9.65173208,140.600758 L9.62270487,142.081989 C9.59895512,143.020487 9.50358637,143.889834 8.71421252,144.573079 C7.91245195,145.266942 6.82949421,145.303929 6.03597308,144.573079 C4.97371956,143.594527 5.16153646,142.26133 5.19301533,140.947154 C5.21921252,139.838621 5.25069139,138.7303 5.28724068,137.622191 C5.36055054,135.40576 5.45414209,133.189964 5.56801533,130.975224 C5.9664933,123.232236 6.76266439,115.520125 7.80315731,107.839084 L8.20932912,104.874028 C8.96783745,99.3619876 9.8005754,93.7245732 11.4961843,88.4147701 C10.8359731,88.0863317 10.1776632,87.7555685 9.52188857,87.4233258 C8.35864914,86.8340812 7.15590266,86.2811888 6.02519843,85.630864 C5.12815618,85.1149579 4.35449421,84.4073571 4.1047759,83.3630753 C3.8262769,82.1995739 4.25214376,80.9269756 4.53506402,79.7921145 L4.55963505,79.6923434 C4.83702942,78.5493611 5.13576181,77.4114511 5.45097308,76.2784021 C6.72914209,71.6838581 8.30963505,67.1789266 10.1592829,62.7838973 C13.8628041,53.9849618 18.6431562,45.6258464 24.4823815,38.0677485 C29.7385083,31.2643826 35.9476632,25.0946448 43.2249872,20.4673415 C46.7827336,18.2050479 50.5741421,16.3474902 54.58379,15.0341595 C56.4579449,14.4203982 58.4970998,13.8865274 60.4593534,13.6667231 C61.5178041,13.5483669 62.5777336,13.4805235 63.6412548,13.4342378 Z M82.6793393,-0.508477694 C83.9562407,-1.8801411 86.4931421,-0.460712528 85.8800435,1.3556319 C84.4379308,5.62892348 82.141452,9.52685694 78.5575083,12.3348569 C75.1886351,14.9746221 71.1713815,16.6888843 66.8450435,16.323037 C66.8116632,16.3200781 66.7827196,16.3116241 66.7571562,16.2995771 L67.1299864,16.8054765 C70.0570493,20.7663977 73.1449659,24.6726072 76.8667336,27.9101055 C84.4497618,34.5065595 94.7744097,38.0644303 104.744128,35.5335106 C112.588072,33.5423794 119.498635,27.3373462 121.531029,19.4294636 C121.239691,19.5600781 120.893424,19.604673 120.513353,19.522035 C118.887227,19.1688687 117.277367,17.4579881 116.228635,16.231311 C115.094128,14.9042425 114.208072,13.4712875 113.558635,11.8514988 C112.370044,8.88709961 111.988917,5.07032465 113.611874,2.19870822 C113.812156,1.84469647 114.273987,2.0431544 114.313283,2.38871213 L114.375074,2.92810512 C114.687963,5.61930126 115.077702,8.22258786 116.3461,10.6759685 C116.966804,11.8764382 117.710889,13.0481642 118.616593,14.0535575 C119.101241,14.591444 119.626663,15.1054479 120.193917,15.5564695 C120.746692,15.9958792 121.415684,16.3135979 121.911149,16.8178066 L122.001945,16.9146065 L122.00448,16.8972757 C122.129762,15.8318589 122.876593,15.3624499 123.607367,15.3918276 C124.314569,15.4202576 125.145225,15.73166 125.466917,15.8808223 L125.497366,15.8951812 C130.430883,18.2643659 134.974687,21.352448 139.250677,24.7785282 C148.093494,31.8638354 154.719058,41.126262 157.929269,52.033628 C159.504868,57.3868453 160.40898,62.9028942 161.363346,68.3932178 L161.950886,71.7571078 C162.841675,76.8256495 163.836712,81.9938804 165.847579,86.7088139 C166.36772,87.9285164 165.966734,89.0723442 164.691311,89.551898 C163.098776,90.1508648 161.500325,90.73081 159.899339,91.3035693 C160.685466,94.677354 161.164832,98.1680155 161.753846,101.558497 C163.005818,108.765331 164.539832,115.92609 165.855184,123.123413 C166.527649,126.803444 167.13441,130.495734 167.806241,134.176188 C168.129691,135.948571 168.467297,137.718419 168.795607,139.489957 C168.972438,140.44526 169.13279,141.403522 169.301593,142.360094 L169.33097,142.51884 C169.427663,143.023485 169.549168,143.545457 169.410396,144.050473 C169.252156,144.626403 168.80279,145.033252 168.401593,145.446231 C168.071382,145.786293 167.594128,145.788407 167.189551,145.602841 L167.056479,145.541253 C166.333883,145.203155 165.767816,144.865899 165.511452,144.050473 C165.349198,143.534145 165.290677,142.952509 165.184621,142.42054 C164.98117,141.400775 164.788283,140.379741 164.60617,139.355749 C164.241945,137.307131 163.88617,135.257033 163.538846,133.205244 L163.214434,131.284039 C162.100984,124.662623 161.043596,118.000941 160.509058,111.309565 C160.271931,108.341024 160.020607,105.375052 159.766984,102.408512 L159.576522,100.183452 C159.335677,97.3672092 159.041382,94.4797415 158.999762,91.6254558 L158.042429,91.9654656 L158.042429,91.9654656 L153.37117,93.6174323 L153.37117,93.6174323 C152.213001,94.0268178 150.738353,94.8658785 149.491874,94.7132836 C148.881734,94.6384656 148.416522,94.4463481 148.057367,94.0971975 C148.487508,100.169925 149.069762,106.232086 149.845748,112.263389 C150.551804,117.751311 151.334551,123.231835 152.259058,128.687421 C152.716874,131.3889 153.187367,134.087843 153.698424,136.779601 C153.953846,138.125691 154.217508,139.469878 154.489198,140.812798 C154.624621,141.482779 154.785818,142.153393 154.891452,142.828869 C155.012297,143.602411 154.799339,144.078372 154.367297,144.714747 C154.012579,145.237417 153.302931,145.505832 152.727649,145.145057 C151.965818,144.666771 151.568424,144.252524 151.344269,143.38155 C151.140607,142.590466 151.016804,141.764509 150.859198,140.96328 C150.568283,139.48425 150.287086,138.00353 150.015607,136.520696 C149.447931,133.419765 148.924621,130.311225 148.457297,127.193385 C146.810466,116.209722 145.765536,105.134121 145.23779,94.0405556 C144.977297,88.567217 144.896804,83.0890174 144.943072,77.6099724 C144.966734,74.8015497 145.058424,71.9850957 145.257015,69.1836476 C145.458142,66.3479607 145.876452,63.5689157 146.249973,60.760493 C146.263072,60.661581 146.402508,60.6558746 146.408424,60.760493 C146.585255,63.9091896 146.862438,67.0542933 146.998283,70.2112327 C147.128001,73.2236084 147.184832,76.2406339 147.287931,79.2540663 C147.423353,83.2151935 147.61117,87.1786456 147.859832,91.1393501 C148.310044,90.6466926 148.988635,90.3626378 149.667649,90.4735967 C150.651311,90.2671074 151.710184,89.7507787 152.648001,89.4373462 L156.183353,88.255898 L156.183353,88.255898 C158.041874,87.6349509 159.900396,87.0182307 161.765466,86.4201094 C160.097968,80.8080505 158.955691,75.1123692 157.980307,69.3336454 L157.545304,66.7347582 C156.68424,61.6192285 155.755828,56.5012813 154.19617,51.5475223 C152.556522,46.3394284 150.10286,41.4973931 146.84786,37.1125086 C143.639339,32.7910292 139.735748,28.9858785 135.716593,25.4267395 C132.275677,22.3799137 128.594762,19.6289783 125.085184,16.6658472 C125.121945,16.8621916 125.129762,17.0784029 125.097438,17.3159607 C124.351241,22.7793658 121.502297,27.8672014 117.531945,31.6514284 C109.555536,39.2539098 97.7484238,40.831217 87.5395505,37.2661603 C77.6642689,33.8177689 68.9332125,25.6507708 65.8484942,15.5446339 C65.7956773,15.3717493 66.0272266,15.3030605 66.1201843,15.430082 C66.2913111,15.6646808 66.4632829,15.8992796 66.635466,16.1338785 C66.6238463,16.040673 66.6722266,15.9392249 66.7871562,15.8948413 C70.3863111,14.5045791 73.9206069,12.5328922 76.6184942,9.74370235 C77.9334238,8.38408591 79.0810294,6.84376497 79.9869449,5.18255166 C80.4208886,4.38681781 80.8106773,3.56276301 81.1216632,2.71123268 L81.2006976,2.4909281 C81.5775807,1.42425454 81.8925446,0.336555322 82.6793393,-0.508477694 Z" fill="#000"/>
    </g>
    <g transform="translate(78.592 38.043)">
      <path d="M14.3301755,21.6423757 C15.4234978,20.4662114 16.8218794,19.589953 18.350549,19.3099139 C16.9532215,20.0096947 15.5873064,20.7390646 14.3301755,21.6423757 Z M12.1886467,31.7838082 C11.995323,30.8874716 11.8654567,29.9824697 11.8245573,29.0776791 C12.0688998,29.4500783 12.4591312,29.6988376 12.8974299,29.8273386 C12.6142961,30.4628689 12.3735375,31.1176321 12.1886467,31.7838082 Z M85.3480919,45.8371895 C84.0861121,40.5709742 78.1983079,30.4415557 76.8066951,28.491929 C75.2955238,23.6644769 83.5373109,19.7930607 79.0550266,16.0181331 C77.0256551,14.3148611 74.3435789,13.71209 71.8276305,13.1080509 C54.4074174,8.91401566 35.6910714,11.0292094 19.5345247,18.741593 C17.0769739,18.2231507 14.516542,19.236364 12.7294048,21.0159335 C4.33342294,29.475863 15.7755704,44.7400039 18.2776046,54.2773973 C22.57036,64.91191 13.7276465,66.7007789 14.6759234,75.6985949 C15.4127459,80.3470333 20.1092252,81.5756125 24.072466,82.2781409 C24.7076724,82.4271429 25.5568629,82.449546 25.7617818,83.1226967 C26.4039453,87.05191 28.6053475,90.7964031 31.5608596,93.3376791 C31.302392,94.1053033 31.4997213,95.0371468 32.4111043,95.7113542 C40.6685763,101.863127 51.0804615,104.941743 61.3795082,104.388341 C73.6531581,103.728836 80.000352,96.6763796 81.531973,94.8604579 C90.0004777,83.3953386 88.9885788,68.2681526 87.2611042,54.6045675 C86.0577111,45.0862424 87.5836752,55.1662312 85.3480919,45.8371895 Z" fill="#D08B5B"/>
      <path d="M47.5027474,2.01659883 C47.8885515,0.807675147 48.9806089,0.080630137 50.2307827,0.230688845 C51.3375977,0.361726027 52.5224167,1.46286106 52.3874907,2.67812524 C52.3621921,2.91272407 52.3284606,3.13252838 52.2884044,3.33965166 L52.2936749,3.34150098 L52.2936749,3.34150098 L52.2989455,3.34176517 L52.2715386,3.42207828 C52.1893181,3.80884932 52.0754743,4.1554638 51.9068168,4.48305675 C51.6917784,5.11076712 51.485173,5.740591 51.2806757,6.37252838 C51.5758264,6.35984736 51.8773017,6.37675538 52.1829934,6.43381996 C52.4992263,5.62223483 52.8175673,4.81276321 53.1338002,3.99906458 C53.4732234,3.13041487 53.7114522,2.01448532 54.3818658,1.34239139 C55.2399109,0.484309198 56.7283135,0.306774951 57.7739901,0.919690802 C58.8786968,1.5664227 59.2729337,2.7161683 59.0325968,3.94834051 C58.9104655,4.57685255 58.4915691,5.01424965 57.9732541,5.28906656 L57.9173489,5.31789041 L57.5188956,6.26473973 C57.6411723,6.21190215 57.7676654,6.16329159 57.9046996,6.12313503 C58.119738,6.05972994 58.3305599,6.01957339 58.5371653,6.00266536 C59.1063844,4.96916243 59.7325255,3.96524853 60.3797487,2.98035616 C61.1239499,1.84751859 62.578621,1.36563992 63.7992798,2.08211742 C64.8913372,2.72250881 65.477422,4.40485714 64.6952728,5.51021918 C64.1007551,6.34927984 63.5378606,7.20524853 62.983399,8.06967123 C63.0782689,8.08657926 63.1731388,8.10771429 63.2637922,8.13518982 C63.3059565,8.07812524 63.3502291,8.02106067 63.39661,7.96399609 C64.0016688,7.21158904 64.7058139,6.64728376 65.428933,6.02168689 C66.1056713,5.43413307 66.4176877,4.51053229 67.3073561,4.06458317 C68.4268203,3.50450489 69.7760805,3.77291977 70.4422776,4.88884932 C71.8716501,7.27922114 69.4724969,9.02497456 67.9377135,10.4727241 C69.2722161,9.63789041 70.6615324,8.87491585 72.0866884,8.21550294 C72.8878116,7.84563992 73.7015841,7.48845793 74.5280059,7.1798865 C75.7528811,6.72336986 76.743744,6.86941292 77.7493645,7.71882975 C78.1984151,8.09926027 78.4218863,8.93007828 78.2152808,9.4836047 C77.8147192,10.5445832 77.1822536,11.1892016 76.0733304,11.4956595 C75.2932894,11.7112368 74.4942744,11.8570685 73.7142334,12.0832133 C72.4071377,12.4594168 71.1379899,12.918047 69.90679,13.4908063 C69.9953352,13.5457573 70.079664,13.6049354 70.1576681,13.6725675 C71.0768515,13.3745636 72.0129007,13.1167162 72.9531664,12.8969119 C74.5125896,12.5303513 76.0998067,12.2826751 77.6939722,12.1277615 L78.2235777,12.0783363 C80.1347765,11.8944699 82.4329987,11.5551395 83.6059967,13.3893581 C83.9918007,13.99382 84.0339651,14.9913933 83.6059967,15.5895147 C82.7880077,16.7392603 81.9742352,16.9675186 80.6207586,16.9886536 C81.953153,17.1302583 83.2834392,17.3056791 84.6074007,17.5106888 C85.5199583,17.65018 86.4325159,17.8083046 87.3410906,17.9837315 L87.7950277,18.0728806 C88.9018426,18.2947984 90.1372589,18.4237221 91.0880657,19.066227 C93.1625531,20.469593 92.1885559,23.2023523 89.8905973,23.4940157 C88.7795659,23.6335068 87.5462578,23.1621957 86.4563087,22.9423914 C85.3979828,22.7289276 84.3354404,22.5408258 83.2686816,22.3759726 C82.7163283,22.289319 82.1639749,22.2132329 81.6095133,22.1434873 C82.7374105,22.306227 83.8568747,22.5365988 84.9468239,22.8620783 L85.2495823,22.9536668 C87.3567074,23.5974607 90.2009467,24.6228228 90.8582698,26.8798474 C91.2567232,28.2515108 90.166774,29.4477534 88.8470289,29.5280665 C87.6200455,29.6020391 86.5975593,28.8686536 85.5560992,28.3275969 C84.7971404,27.9344853 84.0255322,27.6407084 83.2075433,27.3892016 C82.3621475,27.1292407 81.4998859,26.9136634 80.6312997,26.7382427 C81.3653432,27.143651 82.0802211,27.5892333 82.7664297,28.0876928 L83.081857,28.3213071 C84.9057634,29.683721 87.6870447,31.7930231 87.0445017,34.3468532 C86.8421127,35.1520978 85.9461197,35.9214129 85.0859663,35.8389863 C82.8470378,35.6297495 81.6116215,33.2393777 79.9229382,31.9585949 C79.4823204,31.6246614 78.9995383,31.294955 78.4935657,30.9737025 C81.0529435,34.0340548 83.089483,37.5720587 84.6390239,41.2263053 C88.0445289,49.2656176 89.0892662,56.7106704 89.1143215,65.354743 L89.1147727,65.6224697 C89.1189892,70.3905323 89.01147,75.2452485 88.5476618,79.9921761 C88.1175852,84.3776947 87.3291113,88.7061487 85.3452773,92.6776321 C82.020616,99.3370685 75.5420592,104.523605 68.3973053,106.497616 C60.4472117,108.695659 51.5610689,106.977382 45.0487806,101.904975 C43.3875041,100.611511 45.5905928,97.8028767 47.2877091,98.9967945 C54.065633,103.762744 62.8316073,105.271785 70.6109351,102.046579 C76.781692,99.4892407 81.750764,93.9877926 83.8568747,87.6536243 C85.197427,83.6239552 85.5877115,79.3273017 86.0658912,75.1277334 L86.0979114,74.84791 C86.603884,70.4560509 86.8969264,66.0346027 86.89271,61.6131546 C86.8863853,53.4021957 85.7099992,46.6432133 82.107053,39.195229 C80.412045,35.6868141 78.2131726,32.4427984 75.5863318,29.5956986 C74.7894251,29.7584384 73.9419211,29.53018 73.1365814,29.4435264 C72.7254787,29.3991429 72.314376,29.3568728 71.9032734,29.3188297 C72.3232306,29.5910489 72.7350922,29.8740892 73.1399377,30.1637304 L73.6709289,30.5475954 C75.332546,31.7405586 77.4406744,33.0993699 77.0135961,35.4057182 C76.897644,36.0292016 76.2778276,36.6019609 75.6769852,36.7435656 C73.4991951,37.2634873 72.0023596,35.1415303 70.5308228,33.8818826 C69.2511339,32.7870881 67.9124149,31.8064227 66.5483973,30.8236438 C66.2384891,30.601726 65.9264727,30.3798082 65.6123481,30.1600039 C65.9074987,30.5049276 66.1945538,30.8552618 66.4745927,31.2088424 L66.8886164,31.7349104 C68.141422,33.3063719 69.9474069,35.3489684 68.8315984,37.3860705 C68.5153655,37.9609432 67.8407355,38.3434873 67.1871876,38.3308063 C64.9398262,38.2843092 64.0459414,35.7269706 62.9918319,34.1122544 C62.0852978,32.72791 61.1007595,31.4238787 60.0824898,30.1198474 C59.8020967,29.7626654 59.5195953,29.4054834 59.2328776,29.0483014 C54.5125754,29.2934677 49.8091389,29.9190646 45.187923,30.9187515 C42.0129453,31.6056399 38.8906731,32.495636 35.7915912,33.4697495 L35.534039,33.5518868 C33.8568395,34.0932467 32.1287408,34.786101 30.9194973,35.9742505 C30.7468763,36.7928524 30.8793872,37.6561761 31.0445168,38.4737048 L31.1732172,39.0994587 C31.7034807,41.7161202 32.0647872,44.2843327 31.7944081,46.9708063 C31.514015,49.7416086 30.6812685,52.2334286 29.665107,54.8076751 C29.1844331,56.0208258 28.6868934,55.8010215 28.5161277,57.1029393 C28.3853127,58.0945949 28.4662209,59.1183176 28.5555828,60.1182954 L28.6302615,60.966026 C28.8176808,63.1866804 28.9117917,65.6077792 27.45991,67.4400822 C27.2343306,67.7211781 26.7515484,67.6091624 26.5913238,67.3280665 C26.5280772,67.2160509 26.4606142,67.1082622 26.3868266,67.0047006 C25.6868979,65.9881057 24.6138144,65.4090059 23.386831,65.1849746 C23.2308228,65.157499 23.2919612,64.9482622 23.4226708,64.9313542 C24.4599145,64.808771 25.4423445,65.0687319 26.2771992,65.6055616 C25.8812953,64.2331364 22.816311,64.900573 21.8087428,65.1672778 L21.7740435,65.1765205 C20.5175451,65.514681 19.3285096,66.0641918 18.2807248,66.8419609 C16.1725058,68.405953 14.9539553,70.8449354 15.0150936,73.4720196 C15.076232,76.0547202 16.4065181,78.440865 18.6918275,79.6772642 C19.794426,80.273272 21.0488162,80.5607084 22.2968818,80.5480274 C23.5997611,80.5353464 24.7592816,79.9625871 26.0642691,80.0429002 C26.8190115,80.0893973 27.3966634,80.9009824 26.9602621,81.6090059 C26.6693279,82.0824305 26.2898485,82.454407 25.851339,82.7397299 C26.920206,85.2104149 28.2842236,87.5669706 29.8569549,89.7417652 C30.7276494,90.9485753 31.7142958,92.0623914 32.8000286,93.0789863 C33.6475326,93.8736634 35.4837913,94.7930372 35.3804885,96.1182035 C35.3446488,96.5958552 35.0979872,96.8875186 34.6636941,97.0650528 C33.3134783,97.6184243 31.6716596,95.7129888 30.7685681,94.7943866 L30.6960261,94.7211781 C29.5702372,93.5967945 28.5435345,92.3540548 27.6496497,91.035229 C26.0642691,88.6934677 25.0797308,86.0537025 24.6728446,83.2807867 C22.5077037,83.9338591 19.640526,83.3209432 17.8738385,82.5199256 C12.3207898,80.0048571 10.5056133,72.5082622 13.8808719,67.5161683 C14.5344197,66.5502975 15.3524087,65.7239178 16.2842414,65.0560509 C16.0797442,64.9440352 15.8878963,64.800317 15.7171305,64.6185558 C14.7724863,63.6126097 14.1046237,62.2998773 13.441784,61.0899582 L13.36225,60.9452877 C12.7738227,59.8800822 12.2187104,58.7981774 11.6983939,57.6995734 L11.5049091,57.2868141 C10.3432805,54.7823131 9.32501074,53.6875186 8.4964807,51.0540939 C7.69957394,48.5136634 7.0713247,45.9246223 6.66443845,43.2911977 L6.55631274,42.5941462 C6.32099553,41.066083 6.09845194,39.4320822 6.27020151,37.8806301 C5.08749068,38.2674012 3.89845521,38.506227 2.7283937,37.9250137 C1.95678557,37.5424697 1.53092534,36.4265401 1.79445271,35.6255225 C1.98630063,35.0358552 2.30674991,34.572998 2.71363617,34.2094755 C2.47119099,34.0868924 2.24350334,33.9304932 2.04322254,33.7571859 L1.86824037,33.605225 L1.86824037,33.605225 C1.15987881,32.9878708 1.10928156,31.8148767 1.53935822,31.0413346 C1.5815226,30.967362 1.62368698,30.8912759 1.66374314,30.8173033 C2.07273761,30.0839178 2.9181334,29.6041526 3.7529881,29.6168337 C3.88791411,29.6189472 4.02284012,29.6189472 4.15987435,29.6168337 C3.76985385,29.53018 3.38826622,29.3970294 3.02565257,29.172998 C1.38967467,28.1648571 1.59628013,25.4320978 3.57589771,24.9502192 C4.40653597,24.7494364 5.32361121,24.831863 6.23857822,25.0474403 C6.20484672,25.0284188 6.17111522,25.0093973 6.13738371,24.9882622 C5.4458879,24.5634481 4.8661277,23.7328415 4.93148248,22.8810998 C5.00316193,21.9384775 5.30674545,21.2663836 6.13738371,20.7718239 C6.85839459,20.3448963 7.87877255,20.3047397 8.59556699,20.7718239 C9.21749158,21.1797299 9.82676685,21.6299061 10.4128517,22.1138982 C9.82465863,21.3889667 9.31446965,20.6006301 9.10786419,19.763683 C8.8527697,18.721726 9.27862993,17.586775 10.2146791,17.0372642 C10.9609886,16.5997691 11.7494625,16.6483796 12.4536076,16.9865401 C12.4156597,16.4391429 12.5484775,15.8811781 12.9110911,15.3866184 C13.6531842,14.3723483 15.0024443,13.7888102 16.1767223,14.5285362 C16.3306223,14.6257573 16.5372277,14.7927241 16.7375085,14.9977339 C16.347488,13.7528806 16.6995606,12.4467358 18.0298467,11.884544 C18.841511,11.5400431 19.9398931,11.7133503 20.6440382,12.3072446 C20.1970958,9.88305675 23.7663104,8.10137378 25.1535185,10.6058748 C25.4683459,11.1732329 25.7798417,11.7706497 26.0583927,12.3817971 L26.1612471,12.611589 L26.1717882,12.607362 L26.1008994,12.4393386 L26.1008994,12.4393386 L26.0284294,12.2713151 C25.6426253,11.3730763 25.1514103,10.438908 25.0164843,9.46458317 C24.8183117,8.02317417 25.4592102,6.65573777 27.0235087,6.44438748 C27.8309565,6.33448532 28.7290578,6.70223483 29.2708701,7.34495108 C28.9778276,5.10865362 31.4697424,3.48336986 33.2638367,5.15303718 C34.113449,5.94348728 34.566716,7.09957339 35.1064201,8.11405479 C35.4121118,8.68681409 35.7241282,9.25745988 36.02982,9.83233268 C36.1078241,9.73933855 36.1921528,9.64634442 36.280698,9.5554638 C35.827431,8.19436791 35.4753584,6.79945597 35.1780995,5.39609002 C34.8955982,4.07303718 35.5554707,2.69926027 36.9173801,2.3253816 C38.1549047,1.98278278 39.7044456,2.74808219 39.9806223,4.06902153 C40.1745784,4.99875147 40.4043743,5.91833659 40.6573605,6.83327202 C40.8302345,6.79100196 41.0010002,6.76141292 41.1696577,6.74027789 C41.1837125,6.56837965 41.1996413,6.39554207 41.217444,6.22364384 L41.2838,5.61227044 C41.4312287,4.21536419 41.5799282,2.62072695 42.308096,1.43327202 C43.5498369,-0.595690802 46.7332475,0.245483366 46.766979,2.6443092 C46.785953,3.88493542 46.2820887,5.11499413 46.1071065,6.34293933 C46.0312106,6.87765558 45.986938,7.41871233 45.9616394,7.95976908 C46.3010626,6.16329159 46.766979,4.39006262 47.3066831,2.6443092 C47.3699296,2.43507241 47.4373926,2.22583562 47.5027474,2.01659883 Z M20.0368501,71.2930614 C22.8302401,70.8597933 25.3832933,72.421672 27.0382451,74.6091476 C27.3397204,75.0085996 27.1415479,75.5729049 26.8695876,75.9089519 C26.6735233,76.1562317 26.4099959,76.1858207 26.112737,76.2238638 C25.7712056,76.2682474 25.3390207,75.9913785 25.1893371,75.6933746 C24.1246866,73.5629636 22.2251813,72.2166622 20.0368501,71.3881691 C19.9967939,71.3733746 19.9841446,71.3015155 20.0368501,71.2930614 Z M23.9091889,33.1222551 L23.9937873,33.0311977 C24.5590008,32.4434325 23.6657484,31.5456164 23.09927,32.1346497 C22.5028548,32.7547515 22.1065097,33.5080039 21.7253437,34.2714012 C21.3620976,34.9992916 22.45289,35.6422192 22.8176119,34.9115812 L22.9836917,34.5794951 C23.2443489,34.0631298 23.5223295,33.5529867 23.9091889,33.1222551 L23.9091889,33.1222551 Z M16.0643542,31.9159022 C16.8654774,31.780638 16.5258433,30.5583992 15.7280933,30.6932407 C14.6946444,30.867816 13.6652011,31.066274 12.6315413,31.2410607 C11.8306289,31.3763249 12.170263,32.5985636 12.9680131,32.4639335 C14.001462,32.2891468 15.0309053,32.0906888 16.0643542,31.9159022 Z M63.7876846,23.5715812 C63.0137574,23.3126771 62.6817129,24.5370294 63.4514236,24.794454 C64.5150201,25.1501566 65.5699729,25.5147358 66.5789664,26.0086614 C67.3077777,26.3654207 67.9497304,25.2721057 67.2173351,24.9136556 C66.1098877,24.3715421 64.9552162,23.9621566 63.7876846,23.5715812 Z M15.8822041,21.9281213 C15.1264076,21.625045 14.7981579,22.8510881 15.5459432,23.1509941 L18.2781949,24.2464227 L18.2781949,24.2464227 C19.0339914,24.549499 19.3622411,23.3236673 18.6144558,23.0237613 L15.8822041,21.9281213 L15.8822041,21.9281213 Z M73.3282106,18.9507178 L73.2284998,18.887636 C72.5433286,18.4425323 71.9085439,19.539863 72.5899203,19.9826419 C72.9899478,20.2424337 73.4762905,20.4186397 73.8425755,20.7281165 L73.9191523,20.7965519 C74.5107185,21.3566301 75.4069224,20.461773 74.8136696,19.8997926 C74.37964,19.4890465 73.8301731,19.2603423 73.3282106,18.9507178 L73.3282106,18.9507178 Z" fill="#000"/>
    </g>
    <g transform="translate(112.183 77.354)">
      <path d="M19.8236412,47.5025584 C20.9506329,45.2481541 26.6823984,44.6276138 37.0189377,45.6409375 L38.3286371,56.389824 C33.3412059,57.9935753 29.363081,58.627427 26.3942625,58.2913793 C21.9410347,57.7873078 18.1331537,50.8841648 19.8236412,47.5025584 Z" fill="#FFF"/>
      <path d="M20.9161247,53.1483874 C20.3806591,52.0020493 31.4649415,48.8761142 34.8967893,51.0122508 C37.1846878,52.4363419 37.9709475,54.1195861 37.2555684,56.0619834 C27.6326999,58.2577256 22.1862187,57.2865269 20.9161247,53.1483874 Z" fill="#FF8181"/>
      <path d="M18.862162,45.5015413 C21.4493451,42.4940266 25.8067394,42.2845785 29.4162465,43.0365628 C31.7325845,43.5192869 33.9878662,44.3232634 36.3405423,44.6212673 C37.4393451,44.7605472 38.5499789,44.8021832 39.6568099,44.7816822 C40.743993,44.7616039 41.8328662,44.5424337 42.9162465,44.5832243 C43.0827254,44.5893534 43.1456831,44.808101 43.0013873,44.8970795 C41.5151197,45.8103241 39.5129366,46.1032556 37.7573028,46.2818466 C37.7627958,46.411827 37.7706127,46.5386372 37.7885704,46.6462145 C37.8365282,46.9330168 37.8802606,47.217917 37.9155423,47.5066215 C37.9951901,48.1577918 38.0843451,48.8068485 38.1732887,49.4567507 C38.3486186,50.7357982 38.4037331,52.0552493 38.7120923,53.3121332 L38.7658944,53.5210168 C38.8373028,53.7852047 38.8535704,54.0233965 38.8296972,54.2381284 L38.9011056,54.2057918 L39.1266435,54.0964979 L39.2745212,54.0266986 C39.8140938,53.7764666 40.3289382,53.5942223 40.9632887,53.6550129 C41.4462465,53.7010873 41.851669,54.0305824 41.8546268,54.5464885 C41.866669,56.8618309 38.7475141,57.606418 36.9633592,58.0496196 L36.4401398,58.1785701 C34.1691241,58.7326908 31.8503813,59.2184471 29.5146972,59.3346294 C25.7663873,59.520829 21.5543451,58.4864806 19.1023732,55.4449386 C16.8145563,52.6071382 16.3951901,48.3691421 18.862162,45.5015413 Z M35.8842042,55.2295726 C35.4908973,51.7436928 31.2088097,51.5520192 29.9769676,53.7625867 C29.4303352,50.6812913 21.3439225,53.4962888 21.9762465,54.108782 C24.3728662,56.4306763 28.009838,56.6397018 31.1363873,56.210238 C32.7287113,55.9914904 34.3223028,55.6353652 35.8842042,55.2295726 Z M31.1319372,46.092993 L30.055383,45.9379712 L29.6313739,45.8795504 C26.9625025,45.5220057 23.9611217,45.3373297 21.7668803,47.0490481 C20.9657535,47.6737996 20.5149085,48.4887663 20.3465282,49.3641793 C22.4227782,49.0563299 24.5066617,48.8214713 26.5967141,48.6259052 L27.1668803,48.5735178 C28.4746268,48.4555843 29.7817394,48.3313104 31.0882183,48.2009072 L32.0167658,48.1068828 L32.944838,48.0104806 C33.2714577,47.9762419 35.4726549,47.8635922 35.8865282,47.9392556 C35.9306831,47.5672791 35.9883592,46.7622458 36.0817394,46.4002027 C34.517919,46.4532986 32.9609015,46.3371066 31.4062616,46.1303951 L31.1319372,46.092993 Z M36.0875289,30.5120405 C37.6828906,31.482148 40.1137318,33.7442494 38.3974899,36.149264 C36.3773089,38.2698449 33.4687045,35.8384541 32.0353946,34.7388307 C30.7063626,33.8866164 29.2131206,36.0784478 30.4461973,37.0735516 C40.8033244,44.7445605 45.006466,30.7657101 36.8944406,29.3714319 C36.0012775,29.2177885 35.6695544,30.2119271 36.0875289,30.5120405 Z M38.9425563,34.5988673 L39.0192453,34.557154 L39.0451592,34.541467 C39.0900114,34.5124242 39.0614496,34.5155344 38.9594737,34.5508903 L38.8829789,34.5783663 L38.8829789,34.632472 C38.9026268,34.620425 38.9235423,34.611337 38.9425563,34.5988673 Z M18.5107028,25.9799984 L18.5104303,25.932384 C18.5133881,24.5846484 19.2980381,21.5074742 21.2374979,21.5074742 C22.4491129,21.5074742 23.1847181,23.601703 23.3120629,25.7605521 L23.316486,25.8485739 C23.3727209,27.1907594 23.0045415,30.1245429 21.2374979,30.1245429 C19.4517543,30.1245429 18.5290635,27.3458845 18.5107028,25.9799984 L18.5107028,25.9799984 Z M47.0646375,25.5572978 L47.0649099,25.5096835 C47.0619522,24.1619478 46.2773022,21.0847736 44.3378423,21.0847736 C43.1565178,21.0847736 42.4276999,23.0755998 42.2739666,25.1760907 L42.2632773,25.3378515 C42.1867783,26.6347218 42.5310899,29.7018423 44.3378423,29.7018423 C46.1235859,29.7018423 47.0462767,26.9231839 47.0646375,25.5572978 L47.0646375,25.5572978 Z M19.6172746,12.3185096 C21.2000915,12.0777816 23.2960775,12.5351436 24.0340352,14.1452102 C24.3627676,14.8625331 23.9734014,15.6557307 23.1445986,15.6954646 C21.1415704,15.7914176 19.345162,15.3454685 17.586993,16.6484431 C16.8303476,17.2092899 16.194206,17.9858188 15.6603771,18.760387 L15.4583919,19.0551631 L15.2911007,19.2980161 C14.9286166,19.8311478 14.5853684,20.4103748 14.6389648,21.0536172 C14.6548099,21.2440438 14.4602324,21.4247483 14.2753732,21.4171397 C13.1231197,21.3697973 12.9991056,19.924584 13.1505845,19.0565683 C13.4324155,17.4456564 14.2117817,15.933445 15.291993,14.7154333 C16.4265,13.4363413 17.9241761,12.5761456 19.6172746,12.3185096 Z M41.4178099,14.2736055 C42.5092183,13.5717112 43.9052746,13.3020282 45.1838662,13.4053785 C47.7049225,13.6084861 51.9342887,15.7524235 51.3775986,18.832854 C51.205838,19.7828736 49.884993,20.2841965 49.1066831,19.7570888 C48.2698521,19.1904587 48.0661901,18.309762 47.4433732,17.5691906 C46.9464718,16.9776211 46.3166831,16.5496368 45.6423169,16.1850575 C44.9776245,15.8254506 44.2086444,15.6075408 43.4542945,15.5280936 L43.3287254,15.5161339 C42.8747113,15.4774568 40.5820352,15.4878129 40.9185845,16.343993 C40.9845,16.5115937 40.7352042,16.6443217 40.6206972,16.5175115 C39.9178099,15.7397425 40.7138662,14.7263178 41.4178099,14.2736055 Z" fill="#000"/>
    </g>
  </g>
</svg>