<svg xmlns="http://www.w3.org/2000/svg" viewBox="0 0 213 240" width="44" height="44">
  <title>peep-46</title>
  <desc>Created with Sketch.</desc>
  <g fill="none" fill-rule="evenodd" transform="translate(-34 -49)">
    <g transform="translate(31.056 135.053)">
      <path d="M210.439839,44.2719981 C207.423062,44.5683112 204.406286,44.8642016 201.389509,45.1605148 C186.941338,46.26482 172.498877,48.5710744 158.161311,49.9552075 C157.804331,49.3739942 157.105598,49.4697359 156.681367,49.8736263 C155.250698,49.7482956 153.647249,48.6543465 152.351293,49.7922564 C152.309209,49.7863386 152.267124,49.7793641 152.224616,49.7753484 C149.917147,45.3448122 148.322157,40.619231 146.774116,35.8873093 C145.786077,32.9780725 144.456707,30.1618298 142.000144,28.2085304 C137.807744,25.2971801 128.201854,19.3935324 123.278999,19.6416576 C123.197368,18.7599042 122.78646,17.8510979 122.111836,17.2639668 C123.598759,14.7279746 117.653393,13.0733132 117.234026,13.3673014 C117.502819,4.89469088 113.518939,-2.46325824 104.734441,-4.15046763 C96.8645985,-5.79096861 85.6711203,-6.06656939 81.4385394,2.16108619 C80.9732812,2.10867131 76.2174189,2.08390106 75.7572362,2.13547053 C75.041796,1.22898912 67.1848565,9.81870496 70.4050778,12.8091003 C41.6151109,25.5497187 25.245075,24.0295011 17.2764707,59.846824 C16.1991864,63.2115206 16.120727,66.8934541 14.9831706,70.1831214 C10.9360586,79.6370314 7.65345042,89.7038572 6.83649929,99.9906987 C4.86338149,100.49646 4.63646237,103.976765 6.92193761,104.480202 C7.79493121,104.672742 8.52496365,104.935662 9.16152148,105.434237 C8.66390667,113.864155 10.7019491,133.121125 11.9860618,133.061736 C14.6044082,141.398026 26.2836169,143.750738 34.5521013,140.821212 C33.1267193,143.503881 34.5521013,145.190617 34.5521013,146.623976 C64.3043068,147.75005 96.8352027,147.101525 126.57916,148.645861 C130.383915,148.591755 134.38577,149.580663 138.138501,149.011497 C140.427148,148.46262 140.430955,144.862691 138.109528,144.417587 L148.253075,142.213599 C148.026367,142.128002 152.434303,139.194934 155.765763,133.713986 C158.866709,127.582714 156.756231,120.181692 158.161311,113.512322 C169.135483,112.614506 180.291107,112.230628 191.145158,110.37138 C192.625102,114.801071 199.031496,109.503364 201.067847,107.372319 C201.065309,107.368937 201.062771,107.365767 201.060233,107.362386 C202.045735,107.092703 202.836039,106.168679 202.862475,105.07473 C203.553594,104.086879 203.69867,102.694503 203.035889,101.739834 C206.073602,84.2045226 210.704613,66.3006165 212.378485,48.6004521 C212.970209,48.469415 213.527462,48.2098768 213.99991,47.810002 L213.961632,47.7717476 C214.762088,46.879004 214.917738,45.338049 213.583293,44.5795128 C212.506854,43.9670196 211.60806,44.1570236 210.439839,44.2719981 Z" fill="#D08B5B"/>
      <path stroke-width="6.761" d="M95.7042254,109.902153 L98.028169,111.381605 L117.042254,117.510763 L128.661972,118.990215 L138.169014,117.510763 L138.169014,133.784736 L140.070423,149.001957 C139.225352,150.551859 131.197183,150.551859 115.985915,149.001957 C106.289131,148.013935 70.8498792,147.534597 62.7811329,147.323673 L62.3239437,147.311155 C52.8423251,147.037558 43.4761279,147.037558 34.2253521,147.311155 L34.2253521,141.604697 L60.6338028,128.500978 L84.2957746,115.18591 L95.7042254,109.902153 Z M82.2314871,0.831003459 L83.9777755,2.13547053 L80.1650519,8.40203003 L98.738198,23.4312909 L98.738198,35.4357846 L104.618305,40.9994963 L107.97933,35.4357846 L112.715309,29.1351495 L116.08099,18.9218506 L114.935022,12.1931716 L117.239591,11.97597 C117.250741,12.4358445 117.248855,12.8998767 117.234026,13.3673014 C117.653393,13.0733132 123.598759,14.7279746 122.111836,17.2639668 C122.78646,17.8510979 123.197368,18.7599042 123.278999,19.6416576 C128.201854,19.3935324 137.807744,25.2971801 142.000144,28.2085304 C144.456707,30.1618298 145.786077,32.9780725 146.774116,35.8873093 L147.006758,36.5970139 L147.246944,37.3255733 L147.48894,38.0535694 C148.825889,42.0555692 150.269504,46.0213671 152.224616,49.7753484 C152.267124,49.7793641 152.309209,49.7863386 152.351293,49.7922564 C153.647249,48.6543465 155.250698,49.7482956 156.681367,49.8736263 C157.095732,49.4791287 157.77198,49.378614 158.135859,49.9157515 L158.161311,49.9552075 L140.336397,53.4680359 L128.57711,94.7329127 L118.336413,86.4171001 L112.839634,87.2348717 L98.3236599,92.472403 L81.4406628,96.8595465 L42.8990367,107.489421 L37.9908907,107.489421 L9.43077348,100.589825 L6.85690692,99.7399162 C7.7068613,89.5402566 10.9689525,79.5601925 14.9831706,70.1831214 C16.120727,66.8934541 16.1991864,63.2115206 17.2764707,59.846824 C25.245075,24.0295011 41.6151109,25.5497187 70.4050778,12.8091003 C67.1848565,9.81870496 75.041796,1.22898912 75.7572362,2.13547053 L75.8023345,2.13155697 L75.8998379,2.12633569 L76.0254632,2.12194993 C77.1486099,2.08927783 81.0210412,2.11405184 81.4385394,2.16108619 C81.6807099,1.69033429 81.9456679,1.24741907 82.2314871,0.831003459 Z" fill="#FFCF77"/>
      <path d="M213.288867,45.5249461 L212.757927,48.4848454 C212.631743,48.5261845 212.503359,48.5611909 212.373309,48.5899903 C212.206443,50.3545008 212.010189,52.121036 211.789055,53.889029 L208.497318,72.2425821 C207.929558,75.4896031 207.390578,78.7435371 206.85554,81.9986166 L206.146539,85.4950054 L205.707456,87.668065 C204.759594,92.3740861 203.838781,97.0647703 203.030713,101.729372 C203.152673,101.905043 203.247279,102.095536 203.316161,102.295602 L203.253976,102.558522 L203.21074,102.733831 L203.166506,102.907003 C202.528946,105.358807 201.419574,107.736379 198.805205,108.457878 C196.833173,109.001825 194.669409,109.051124 192.633104,109.265817 L192.407388,109.290386 L156.775205,113.299067 C152.46974,113.783313 148.166304,114.282168 143.863273,114.786324 L140.132985,115.224005 C134.933639,115.826322 129.704391,116.300327 124.581614,117.390598 C124.393374,117.430754 124.237459,117.505995 124.110275,117.604907 C125.141895,113.698519 126.12936,109.797204 127.02429,105.851294 C128.031614,101.410191 128.987599,96.9604216 130.065064,92.5353805 C132.235628,83.6206251 134.668797,74.7644138 137.332459,65.9842885 C137.891437,64.1414901 138.463327,62.3023609 139.047761,60.4675126 L139.457847,59.1849222 L139.773506,58.1628588 C140.26191,56.6044794 140.866298,55.0027767 142.298515,54.143177 C143.974606,53.1370871 146.260256,52.9703005 148.161243,52.622365 L149.448532,52.3804627 C151.374524,52.0209911 153.302987,51.6751692 155.233797,51.3429969 C164.478022,49.7523746 173.774642,48.4764529 183.105487,47.5179793 C192.814937,46.5204741 202.558221,45.8723237 212.313319,45.5555224 L213.288867,45.5249461 Z M124.848571,106.719957 L124.939501,106.727553 L123.608515,117.371365 C123.395768,117.222363 123.125557,117.13106 122.795768,117.131905 C118.429976,117.144764 114.244987,115.748889 110.197105,114.214311 L109.580689,113.979313 L107.862096,113.318505 C106.11516,112.64892 104.358867,111.994106 102.569853,111.45102 L101.846657,111.232689 L101.47905,111.124089 C100.124523,110.728518 98.6996534,110.368937 97.2906816,110.279446 L97.0986558,110.268938 L97.5089375,110.053572 C97.5689375,110.022081 97.6215431,109.986786 97.6682332,109.948743 C98.4437966,110.00623 99.2208389,109.99059 100.038867,109.843067 C101.577318,109.565987 103.073304,109.030637 104.446966,108.285204 L105.060479,107.952552 L105.311628,107.819254 L105.477546,107.733203 L105.642544,107.649728 C106.822327,107.06139 107.950432,106.693013 109.440064,107.006324 C111.131091,107.362415 112.612983,108.274109 114.137337,109.044548 L114.407872,109.179306 L114.589759,109.267225 L114.775193,109.354479 L114.962845,109.44025 C117.02421,110.368182 120.304848,111.369657 121.095275,108.565878 C121.412811,107.439381 121.164149,106.384531 120.613163,105.459662 C121.639923,105.370757 123.474198,106.581784 124.848571,106.719957 Z M176.16074,71.6510589 L176.18558,71.7787632 C176.477065,73.3485795 175.746086,74.8502597 174.63993,75.9450165 C173.732536,76.8428326 172.126691,77.3418306 171.671832,78.6333923 C171.412818,79.3682572 171.688311,80.0650791 172.220283,80.5509735 L172.097758,80.6115097 L171.977975,80.6727608 L171.861032,80.7346184 L171.747008,80.7969813 L171.635969,80.8597546 C169.828783,81.8983672 168.357051,83.5874494 169.986973,85.6276075 C171.83595,87.9420334 175.699424,88.0170243 178.421456,87.8359376 L178.60483,87.8230979 C181.244261,87.6251055 184.370842,86.7381837 185.802043,84.3001163 C186.458452,83.1816506 186.386198,81.8290087 185.471198,80.8718032 C184.919156,80.2943942 183.934437,79.7013453 183.03148,79.631177 C183.070987,79.1222455 183.010353,78.6306447 182.831409,78.2157641 C182.444367,77.3190048 181.414437,76.715177 180.421057,76.6934079 C180.501496,74.7892168 178.976933,72.9096252 177.85438,71.3873624 L177.73977,71.2311752 L177.628522,71.0776193 C177.113471,70.3607191 176.011414,70.7623529 176.16074,71.6510589 Z M177.666973,73.6778619 L178.689719,77.5104881 L178.672155,77.5420114 C178.311898,78.2263912 179.256275,79.0032669 179.816426,78.4282237 L179.872821,78.3674211 C180.537624,77.6805476 181.558083,78.603848 181.570775,79.3348639 C181.588945,80.3639882 180.919258,81.1596747 180.121361,81.6853243 L180.065493,81.7215589 L179.918385,81.8129871 C179.263572,82.2459084 179.759314,83.15104 180.479156,83.0408913 C181.36986,82.9045703 182.09979,82.197815 182.54979,81.3154275 C183.030635,81.4532279 183.577818,81.4365312 184.084226,81.7199519 C185.36031,82.4339042 184.626402,83.6829059 183.79543,84.4377999 L183.761694,84.4681305 L183.694015,84.5271065 C182.16946,85.8276845 180.093771,86.2794688 178.137181,86.376298 L178.024437,86.381494 C176.048029,86.4660341 173.473099,86.4943551 171.779156,85.3315058 C170.72493,84.6078423 170.419649,83.5815253 171.311832,82.6095253 C171.816339,82.0602259 172.325705,81.5060654 172.850071,80.9705038 C173.63493,81.3452279 174.335916,81.193267 175.138522,80.8386212 C175.241409,80.7929696 175.184367,80.6355136 175.083592,80.6355136 C174.640775,80.6350909 173.015916,79.8127269 172.936902,79.2873101 C172.863897,78.800993 173.762726,78.3909998 174.199803,78.1560412 L174.26321,78.121288 L174.31817,78.0893766 C174.775353,77.8122964 175.205705,77.4897758 175.599085,77.1275214 C176.597493,76.2081103 177.322641,75.054955 177.639313,73.7928915 L177.666973,73.6778619 Z" fill="#FFF"/>
      <path d="M81.9870008,0.250225911 C82.8834093,-2.00340227 85.9136206,-1.1273553 85.5758037,1.24019069 C85.3736206,2.65835116 84.5972121,4.15619069 83.8998177,5.39914176 C83.3319304,6.41087562 82.6841839,7.39830419 81.8059445,8.15662904 C83.3693248,9.61579147 84.9920713,11.0216936 86.6560149,12.3565821 C88.4716487,13.8129969 90.3808741,15.155494 92.3543248,16.389357 C94.0848177,17.4714705 95.8934797,18.4301555 97.5246769,19.6648639 C99.041367,20.8127073 100.423057,22.1932474 101.126156,23.9954314 C101.875146,25.9145651 101.549646,27.8965016 100.998106,29.8143399 L100.934747,30.0311731 C100.371297,31.9312122 99.3958741,34.2216153 100.748409,36.0117523 C101.43693,36.9230948 102.437916,37.5685586 103.302212,38.2970831 C104.070381,38.9446604 104.791437,39.6488795 105.452705,40.4053022 C106.894606,42.0542572 108.067353,43.9097014 108.807423,45.97713 L108.873606,46.1649536 C109.507937,47.9951228 109.971529,50.2371418 109.114395,52.0340067 C108.86848,52.5490674 108.075381,52.381678 107.937635,51.8801437 C107.626226,50.7439245 107.642494,49.5540224 107.381367,48.4017406 C107.109677,47.2033844 106.657564,46.0658971 106.067071,44.9897014 C104.924569,42.9077398 103.377272,41.1293431 101.549215,39.6258318 L101.001983,39.180642 C99.5758887,38.0098407 98.265621,36.7677738 97.9761558,34.8300928 C97.6664375,32.7569578 98.4967192,30.7821007 99.0305924,28.8199245 C99.4026346,27.4524881 99.5241135,26.1416936 99.1220713,24.9059285 C98.6308741,25.7080028 97.9607332,26.4692866 97.4306628,27.1483551 C96.3749586,28.5012083 95.3093248,29.8458189 94.2464375,31.1929656 C93.1567192,32.5743512 92.0938318,33.9775058 91.0816487,35.4170126 C90.6289023,36.0609969 90.1810149,36.7087856 89.7346065,37.3572083 C89.3989023,37.8445821 88.9307332,38.3315332 88.5648177,38.828629 C88.6537614,39.0945077 88.6470008,39.4009656 88.4858037,39.6186564 C86.5453107,42.2415136 83.7846769,36.7688091 83.0646769,35.3861555 C81.5984797,32.5703355 80.5072825,29.5788834 79.0362262,26.7636975 C77.5119304,23.8453727 75.7761558,21.0048247 73.8415783,18.3405429 C72.671367,16.7289969 71.3598177,15.2153061 70.2893248,13.5526134 C67.7674234,15.840269 64.4488318,17.3738267 61.4006628,18.7645116 C58.0515683,20.2922723 54.572168,21.5403413 51.1383931,22.8656476 L50.1240783,23.2597606 C44.207582,25.5696928 38.1465011,28.1074309 33.2287614,32.210406 C27.4499586,37.0319402 24.0312262,43.7520341 21.4860854,50.7109539 C18.5562262,58.7221868 16.132353,66.949631 13.8728459,75.1717915 C12.7165783,79.3787191 11.6194656,83.6046682 10.5880572,87.8441437 C9.67918394,91.5791261 8.92580366,95.3513061 7.87369099,99.0478228 C10.0074938,98.9723707 12.4410854,99.7987504 14.2628459,100.037365 C22.5654515,101.124551 30.7562966,102.857623 38.5949586,105.858163 C39.563198,106.228872 39.8433389,107.196222 39.6324938,107.980332 C40.1908741,107.822664 40.7488318,107.662883 41.3072121,107.506062 C40.6954532,106.568339 40.9874384,104.891835 41.0355343,103.852475 L41.0384797,103.781013 C41.0879163,102.396034 41.2381276,101.009576 41.335522,99.6271339 C41.5209824,96.9918234 41.7624275,94.375782 42.0834531,91.7555709 L42.1653811,91.1004177 C42.5291839,88.2497249 42.7981276,85.3823355 43.1950994,82.5365038 L43.2420008,82.210813 C43.0516487,81.4827112 42.830029,80.7634862 42.5974234,80.0474314 C41.9775642,78.139995 41.1027051,76.3445742 40.3360149,74.4971613 C40.2455924,74.2796819 40.5553107,74.1547739 40.700029,74.285177 C41.9984797,75.4537328 43.0298882,76.9361437 43.8584797,78.4866095 C43.8728459,78.4134823 43.885522,78.3401437 43.900522,78.2670165 L43.9950726,77.8014546 C44.2282312,76.6660706 44.5118344,75.4714926 45.2080572,74.550633 C45.2822121,74.4527778 45.4288318,74.4322768 45.4989727,74.550633 C46.1653107,75.6786095 46.2398882,77.1071261 46.342353,78.3906564 C46.4583389,79.842633 46.4729163,81.3129969 46.4524234,82.7689891 C46.4124938,85.6143981 46.2120008,88.4678384 46.0522825,91.3085977 C45.8955965,94.1002119 45.5878856,96.8562548 45.1913255,99.6204251 L45.1159445,100.138813 C44.9220889,101.454486 44.7633829,102.786498 44.5076899,104.093173 L44.4354515,104.44888 C44.2987614,105.09688 44.2146769,106.010547 43.9425642,106.769506 C50.9435501,104.815995 57.9553107,102.907079 64.9803811,101.031768 C70.0577755,99.6761672 75.1404515,98.340856 80.2210149,96.9970909 C80.4891135,96.5137328 80.8229163,96.0622885 81.2395361,95.6588208 C82.6121417,94.3290048 84.4311558,93.7357445 86.0995361,94.759314 C86.2351699,94.8427973 86.2465783,95.0554157 86.0995361,95.1359402 C85.7798882,95.3107269 85.4596065,95.4899519 85.145029,95.6767856 L88.1957332,94.8501946 C90.4759445,94.231995 92.7834093,93.4595097 95.1172825,93.0285664 C99.4159445,90.9063981 104.039325,89.3703042 108.567635,87.852175 L109.101246,87.6716102 C111.419852,86.8808263 113.818102,85.9955533 116.213621,85.5571222 C117.967353,85.2362924 120.025945,85.6234862 120.731156,87.4208091 C121.623973,88.0094196 122.463973,88.7011692 123.274606,89.3815058 C123.860663,89.8731065 124.422423,90.3957758 124.993691,90.9047073 L125.099007,90.9971986 C125.566027,91.4025639 125.935988,91.6740515 126.050663,92.3192748 C126.109818,92.6525742 125.898128,93.1031731 125.487212,93.0590009 C124.229959,92.9243707 123.207635,91.4664764 122.354959,90.5959245 C121.696226,89.9229852 121.032212,89.22722 120.430945,88.4877054 C120.080452,88.6785547 119.600029,88.6443159 119.37693,88.2216153 C118.220029,86.0301241 115.050804,87.548676 113.297283,88.0683864 L110.785324,88.8121771 C109.529426,89.1846034 108.274015,89.5588709 107.020733,89.9396819 C103.576226,90.9860772 100.148621,92.1571692 96.6728459,93.1181789 C96.9838318,93.4601437 96.9409445,94.0684099 96.3502403,94.2998384 C93.6295361,95.3677915 90.6447473,95.9200498 87.818198,96.6528013 C86.0336206,97.1158697 84.2500994,97.5816858 82.4672121,98.0502494 C82.1615079,98.5456545 81.9415783,99.1061555 81.8490431,99.7585938 C81.5088074,102.157532 82.1650016,104.925384 82.8041952,107.245607 L82.9004802,107.591786 C83.4259192,109.457212 84.1989541,111.743987 85.8077755,112.921913 C86.200522,113.209138 86.7005924,113.409075 87.2046769,113.454304 C90.3540431,111.832613 93.503198,110.211134 96.6542544,108.592613 C97.2379868,108.292707 97.777353,108.698711 97.9083389,109.181435 C99.0193952,108.99904 100.127916,108.711604 101.137564,108.368793 C102.834043,107.792441 104.158691,106.693208 105.749114,105.932981 C108.826454,104.462389 111.969021,106.268783 114.72429,107.642109 L115.35931,107.954338 C116.594877,108.554054 119.16539,109.706163 119.758268,108.065928 C120.331649,106.47911 118.518761,104.783236 117.347916,104.069083 C115.952283,103.217553 114.327212,102.761881 112.749888,102.382296 C111.849254,102.165451 110.937635,101.988551 110.020522,101.859416 C108.98024,101.71295 107.905733,101.73493 106.904114,101.397404 C106.406367,101.230015 106.329888,100.439142 106.904114,100.308527 C108.445963,99.9574974 110.286219,100.340396 111.895198,100.731679 L112.736156,100.938985 C114.357212,101.336958 115.993902,101.836379 117.470452,102.63021 C118.544114,103.207619 119.677353,104.084723 120.417635,105.158382 C121.060506,104.560976 121.860625,104.581174 122.694092,104.802742 L123.146476,104.928547 C123.893491,105.135643 124.498993,105.278188 125.225874,105.134711 C125.323057,104.605701 125.421508,104.07648 125.52693,103.547259 C126.562775,98.3450831 127.698761,93.1627739 128.952212,88.0081515 C131.114298,79.1171219 133.616104,70.3236741 136.436569,61.6203377 L136.719677,60.7503042 C137.37017,58.7595958 137.893691,56.5907191 138.942423,54.761905 C139.934325,53.0326369 141.52348,52.0365429 143.411578,51.5090126 C145.554254,50.9104686 147.805733,50.5972474 149.991508,50.1929343 C150.479114,50.1028991 150.967987,50.0173022 151.456015,49.9287465 C151.043585,49.1838071 150.735743,48.3381985 150.45845,47.6892574 L150.409818,47.5768404 C149.814106,46.2181328 149.278974,44.8349444 148.762221,43.4443776 L148.375669,42.3989813 C147.442644,39.8816312 146.479471,37.4056226 145.167635,35.0511652 C143.78679,32.5732944 141.954888,30.5475018 139.671297,28.87086 C135.015381,25.4520576 129.40348,23.7082063 124.887635,20.0545938 C124.702564,19.9049578 124.939818,19.6490126 125.127635,19.7436975 C128.17686,21.2764099 131.468621,22.3185782 134.64017,23.5663903 L135.265808,23.813339 C137.772575,24.8074592 140.318377,25.8896828 142.488128,27.4991966 C144.907142,29.2939832 146.812353,31.5228834 148.244325,34.1734275 C149.655592,36.7861398 150.558339,39.7105938 151.554043,42.5012631 L151.820351,43.244849 C152.221968,44.3598706 152.63679,45.4715609 153.112142,46.5566525 C153.489466,47.4181163 154.193621,48.4015292 154.513691,49.3855762 C155.389395,49.2336153 156.264888,49.0812318 157.141437,48.934766 C176.127423,45.7636662 195.325522,43.900402 214.566297,43.3553296 C215.319043,43.3339832 215.708409,44.0525742 215.597494,44.709451 C213.751015,55.6322455 212.110099,66.592449 210.309677,77.5234862 C209.523761,82.2942964 208.722212,87.0615136 207.90186,91.826406 C207.486297,94.240449 207.005874,96.6451926 206.612283,99.0628287 C206.294536,101.015283 206.063832,102.982954 205.518339,104.890179 C205.029043,106.600214 204.278198,108.249169 203.045029,109.553835 C201.715733,110.960159 199.860381,111.640919 197.992775,111.962594 C193.251719,112.778829 188.388761,113.112128 183.609254,113.655932 L158.162705,116.552065 C158.534565,119.933379 158.562356,123.262086 158.391738,126.682763 L158.2945,128.550118 C158.215007,130.052105 158.119976,131.556351 157.904325,133.042883 C157.633902,134.907627 156.781226,136.486625 155.52524,137.879424 C154.37193,139.158516 152.970804,140.249928 151.607916,141.29569 C150.193268,142.381608 148.731508,143.429694 147.068198,144.101154 L146.852309,144.186873 C145.393112,144.756812 142.655808,145.639375 140.661297,145.31684 C140.922001,146.623619 141.426508,148.028676 140.979254,149.321717 C140.77179,149.922163 139.98693,150.221647 139.506085,149.710813 C138.55348,148.698234 138.479114,147.360809 138.25348,146.03987 C138.018761,144.665247 137.816367,143.285764 137.636578,141.902899 C137.288832,139.229107 137.018198,136.530797 136.935592,133.83439 C136.850663,131.065279 136.883409,128.292363 137.032564,125.52621 C137.109254,124.105725 137.204325,122.686085 137.384536,121.274688 C137.461437,120.672762 137.540029,120.070414 137.629818,119.469968 C137.662564,119.251009 137.698902,119.033107 137.737987,118.815627 L135.454011,119.07341 C131.95189,119.464534 128.448105,119.817729 124.921226,119.87259 C124.50355,119.87893 124.182212,119.688715 123.972212,119.411635 C123.74848,119.776214 123.358902,120.03702 122.800945,120.034907 C117.875663,120.016519 113.289043,118.405396 108.809325,116.506625 C106.551297,115.549208 104.328339,114.512746 102.06693,113.563572 C99.9561558,112.677592 97.6996065,112.045443 95.6397473,111.047447 L90.2270713,113.887572 C90.187353,114.027275 90.1364375,114.159369 90.082353,114.269905 C89.7299586,114.989553 89.0350994,115.379917 88.3254515,115.673905 C87.6443248,115.956692 86.9389023,116.044613 86.2516487,115.973177 C82.1466663,118.125146 78.0407332,120.275093 73.9320669,122.419988 L69.8224234,124.563087 C61.6345361,128.827925 53.4789727,133.162719 45.2395361,137.327377 L44.6329471,137.632851 C41.787014,139.060449 38.7310572,140.50755 35.5727755,141.587353 C35.5165783,142.387103 35.5520713,143.164872 35.6190431,144.01133 L35.635165,144.195723 C35.7293299,145.196009 35.9312345,146.44938 35.1291135,147.161506 C34.71186,147.531791 33.9665079,147.533271 33.6827755,146.974883 C33.1679163,145.962304 33.6301699,144.365975 33.7932685,143.265897 C33.8511558,142.874688 33.9217192,142.472488 34.0260854,142.082336 C30.4053811,143.160645 26.675029,143.683525 22.990522,143.078007 C19.403198,142.488973 16.6248177,140.228159 14.3849586,137.462852 C12.0210854,134.544739 10.3412966,131.143901 9.44002901,127.49832 C8.41432479,123.349936 8.34735296,119.065866 8.37143747,114.816668 C8.39700085,110.29187 8.56432479,105.744668 9.11446563,101.250304 C8.51171916,101.108488 7.84326845,100.985905 7.23418394,101.028175 C6.9324938,101.51111 6.34728254,101.714429 5.81847972,101.651658 C4.66855014,102.920394 7.5853107,104.217028 8.51742338,104.541662 C8.84108535,104.654523 8.80643747,105.180363 8.43312761,105.164512 L8.19798193,105.15333 C6.75769429,105.076676 5.26968297,104.830669 4.42284592,103.491674 C3.74425437,102.418437 3.94812761,101.146954 4.75707127,100.271752 C5.29136704,95.2179441 6.56869099,90.2966525 7.7574938,85.3666956 C8.92411352,80.5278306 10.2215079,75.7200341 11.5966487,70.9365429 L12.2131328,68.7955461 C14.3782663,61.2950266 16.6413701,53.733989 19.6279868,46.5315018 C21.1193248,42.9351652 22.837353,39.4049813 25.1661558,36.269177 C27.3369304,33.3459911 29.8998177,30.8446604 32.8457332,28.7083316 C38.3376378,24.725283 44.7818194,22.318631 51.113501,20.02573 L51.3969304,19.9231339 C54.6781276,18.735768 57.9512966,17.5342416 61.1950994,16.2477523 C64.0639023,15.1100537 66.8122825,13.6675879 69.6675642,12.5127699 C69.5748177,12.3443238 69.4852403,12.1739754 69.3990431,12.0017249 L69.3462575,12.0461398 C69.3372356,12.0533179 69.3279868,12.060269 69.3183389,12.0668208 C69.0312262,12.2659128 68.6084797,12.1680576 68.37186,11.9446604 C67.7037413,11.3139868 67.9299338,10.6138948 68.375899,9.95983568 L68.4339727,9.87659773 C68.9794656,9.11214372 69.4660149,8.3039402 69.9694656,7.5117993 L70.2847305,7.0164232 C71.1297917,5.69302826 72.0178459,4.36080125 73.1446065,3.26704 C73.6664375,2.760222 74.2377051,2.38105957 74.8429868,2.09848423 C74.7912262,1.98900478 75.245029,1.76518482 75.373691,1.87783452 C77.291367,1.17572885 79.4976346,1.32282865 81.5883389,1.51642552 M156.931437,116.691979 L154.26524,116.995267 C151.332001,117.329158 148.397621,117.652017 145.462875,117.971741 L139.088409,118.664723 C139.072142,119.028245 139.027987,119.383737 139.019959,119.658281 C138.978339,121.073694 138.947283,122.489741 138.917916,123.905576 C138.858973,126.743588 138.923621,129.584347 139.110381,132.416864 C139.291411,135.161512 139.529817,137.906531 139.90028,140.632591 L139.976156,141.177545 L140.020099,141.464136 C140.322423,141.493302 140.619466,141.63702 140.866437,141.932277 C141.405592,142.576261 143.357916,141.950242 144.120381,141.678868 C145.374254,141.232496 146.555029,140.478398 147.644536,139.722187 C148.708529,138.983803 149.6666,138.122793 150.587263,137.215804 L151.340547,136.470502 C152.089872,135.725593 152.840007,134.932027 153.299114,133.995017 C153.921719,132.724379 154.002212,131.164613 154.184747,129.780692 C154.409536,128.078476 154.677212,126.376472 154.960099,124.682711 M79.5324938,98.8240028 L79.2559445,98.8967073 C69.2099586,101.567118 59.1789727,104.316363 49.1021417,106.86884 C44.1153811,108.132292 39.1049586,109.303807 34.1120713,110.542954 L33.3037099,110.745206 C29.3648551,111.741107 25.3787154,112.939712 22.3624234,115.797756 C22.2510854,115.903009 22.0894656,115.741326 22.1942544,115.629521 C25.445029,112.167604 30.0684093,110.702101 34.5075642,109.431674 C35.3281276,109.196864 36.1497473,108.967549 36.970522,108.734007 C30.9333389,106.580981 24.8008741,104.707784 18.52686,103.371838 C16.9112966,103.02776 15.2769304,102.775197 13.6626346,102.42985 C12.5368107,102.188847 11.4373403,101.840506 10.3234096,101.551535 L9.44721211,101.33104 L9.43557558,104.10134 C9.42099337,108.025072 9.42795658,111.945605 9.62805718,115.86877 L9.6659359,116.595512 C9.8993997,120.961441 10.263817,125.418021 11.8125642,129.53468 C13.0710854,132.879932 15.0770713,136.031377 17.7003811,138.468034 C19.0277755,139.70084 20.4548882,140.660582 22.2189727,141.134429 C23.8569304,141.574249 25.5730572,141.625819 27.25686,141.508519 C35.3334093,140.944848 42.5228459,136.555737 49.5386206,132.92178 C61.0140431,126.977975 72.4907332,121.03713 83.9777755,115.116152 C83.6672121,114.903745 83.3748177,114.659001 83.1088318,114.384034 C81.5684797,112.792566 80.7559445,110.613968 80.2222825,108.504058 C79.6541839,106.258249 79.3144656,103.851181 79.2749586,101.532668 M94.1486417,117.410591 C94.2500501,117.356063 94.3675149,117.424329 94.3721628,117.538881 C94.4076558,118.416553 93.9228104,119.282207 93.5605486,120.072875 L93.5222332,120.1573 C93.0821628,121.136697 92.6002614,122.102991 92.1018811,123.054067 C91.1057544,124.954317 90.0705431,126.834278 88.9901206,128.687609 C86.8174445,132.41604 84.4030783,135.987437 81.5492755,139.233777 C80.904698,139.967163 79.8445572,139.026865 80.2582192,138.237261 C82.2525854,134.430842 84.5775854,130.83683 86.9708248,127.274098 C88.1689234,125.490302 89.3661769,123.704815 90.5761065,121.929049 C91.08086,121.18809 91.5920689,120.449773 92.1170689,119.72266 L92.4337825,119.287805 M213.294043,45.5354079 C203.212987,45.8399637 193.143761,46.4976858 183.110663,47.5284412 C173.779818,48.4869148 164.483198,49.7628365 155.238973,51.3534588 C153.308163,51.685631 151.3797,52.0314529 149.453708,52.3909245 L148.298409,52.6082455 C146.372071,52.9734588 144.018761,53.1241515 142.303691,54.1536388 C140.495452,55.2389226 140.00679,57.5071339 139.405099,59.377584 C138.697775,61.5773179 138.008409,63.7833923 137.337635,65.9947504 C134.673973,74.7748756 132.240804,83.631087 130.07024,92.5458423 C128.992775,96.9708834 128.03679,101.420653 127.029466,105.861756 C126.134536,109.807666 125.147071,113.708981 124.115452,117.615369 C124.242635,117.516457 124.39855,117.441216 124.58679,117.40106 C129.709567,116.310789 134.938815,115.836784 140.138162,115.234467 L140.641226,115.175752 C146.019888,114.54297 151.39855,113.914836 156.780381,113.309529 L192.412564,109.300848 C194.514043,109.064559 196.765311,109.032433 198.810381,108.468339 C202.287373,107.508779 203.102357,103.61999 203.685729,100.523021 L203.703339,100.42942 C205.462142,91.0723081 206.862212,81.6338267 208.502494,72.2530439 M124.944677,106.738015 C123.561297,106.646711 121.667916,105.379244 120.618339,105.470124 C121.169325,106.394993 121.417987,107.449842 121.100452,108.576339 C120.216719,111.711087 116.22017,110.089185 114.295099,109.131557 C112.716719,108.345968 111.192635,107.384746 109.44524,107.016786 C107.465663,106.600426 106.124536,107.387917 104.452142,108.295666 C103.07848,109.041099 101.582494,109.576449 100.044043,109.853529 C99.2260149,110.001052 98.4489727,110.016692 97.6734093,109.959204 C97.6267192,109.997247 97.5741135,110.032543 97.5141135,110.064034 L97.1038318,110.2794 C98.9589727,110.364363 100.84855,110.937122 102.575029,111.461482 C104.364043,112.004568 106.120336,112.659382 107.867272,113.328967 L109.585865,113.989775 C113.825039,115.613755 118.213163,117.15588 122.800945,117.142367 C123.130733,117.141521 123.400945,117.232825 123.613691,117.381827 M117.20474,96.915721 C118.57143,96.7485429 119.832909,96.927768 120.924952,97.8177641 C122.241994,98.8910009 123.126783,100.670993 125.020163,100.78787 C125.572205,100.821897 125.700445,101.598398 125.151783,101.760715 C123.742416,102.178132 122.60136,101.415369 121.641149,100.424981 L120.995555,99.7502004 C120.046653,98.7672656 119.171496,98.007373 117.56136,98.0661007 C115.836994,98.1290831 114.10967,98.5276897 112.396501,98.7303746 C110.455797,98.9599011 108.515515,99.1556114 106.568684,99.3244803 C106.478261,99.3323003 106.462839,99.1898502 106.547557,99.1689265 L108.728093,98.6260399 M115.885501,91.3263089 L116.110903,91.3037409 C118.095499,91.1109604 119.910483,91.1034803 121.682895,92.1714987 L122.022842,92.3771539 C123.620852,93.3488063 125.360191,94.4935339 126.359515,96.0666846 C126.523036,96.3243206 126.252825,96.6271856 125.979233,96.561667 C124.058599,96.1005007 122.654515,94.6907942 121.039374,93.6357335 C119.226698,92.4517492 117.354233,92.6470369 115.287402,92.8309116 C113.286275,93.0090799 111.286205,93.2538236 109.304726,93.5875457 C107.442825,93.9007668 105.575008,94.3953265 103.694304,94.5529938 L103.694726,94.5491895 C103.479867,94.5487668 103.357332,94.2260349 103.576416,94.1165555 C105.485008,93.1631543 107.695501,92.7119214 109.771628,92.2763285 M176.173839,71.7035332 C175.982008,70.7856388 177.110599,70.3599793 177.633698,71.0880811 L177.744946,71.2416371 C178.875059,72.7904892 180.509445,74.7340168 180.426233,76.7038697 C181.419614,76.7256388 182.449543,77.3294666 182.836585,78.2262259 C183.015529,78.6411065 183.076163,79.1327073 183.036656,79.6416388 C183.939614,79.7118071 184.924332,80.304856 185.476374,80.882265 C186.391374,81.8394705 186.463628,83.1921124 185.807219,84.3105782 C184.376018,86.7486455 181.249437,87.6355673 178.610006,87.8335597 L178.515952,87.8403394 C175.789754,88.0288639 171.861445,87.9779285 169.992149,85.6380694 C168.18898,83.3810596 170.181867,81.5537249 172.225459,80.5614353 C171.693487,80.075541 171.417994,79.3787191 171.677008,78.6438541 C172.131867,77.3522924 173.737712,76.8532944 174.645106,75.9554784 C175.751262,74.8607216 176.482241,73.3590413 176.190756,71.789225 M177.672149,73.6883238 C177.371515,74.995314 176.632923,76.1907112 175.604261,77.1379832 C175.210881,77.5002377 174.780529,77.8227582 174.323346,78.0998384 L174.268386,78.1317499 C173.862646,78.3596117 172.865329,78.7865155 172.942078,79.2977719 C173.021092,79.8231887 174.645952,80.6455527 175.088768,80.6459754 C175.189543,80.6459754 175.246585,80.8034314 175.143698,80.8490831 C174.341092,81.2037288 173.640106,81.3556897 172.855247,80.9809656 C172.330881,81.5165273 171.821515,82.0706878 171.317008,82.6199872 C170.424825,83.5919872 170.730106,84.6183042 171.784332,85.3419676 C173.478275,86.5048169 176.053205,86.476496 178.029614,86.3919559 C180.018909,86.306993 182.145318,85.8631574 183.699191,84.5375684 L183.76687,84.4785923 C184.611376,83.7272222 185.38273,82.4540141 184.089402,81.7304138 C183.582994,81.446993 183.035811,81.4636897 182.554966,81.3258893 C182.104966,82.2082768 181.375036,82.9150322 180.484332,83.0513531 C179.76449,83.1615018 179.268748,82.2563703 179.923561,81.8234489 L180.070669,81.7320208 C180.892914,81.207019 181.594543,80.3983831 181.575952,79.3453257 C181.563259,78.6143099 180.5428,77.6910094 179.877997,78.377883 L179.847571,78.4107347 C179.291282,79.0380287 178.311445,78.2475465 178.677331,77.5524732 L178.694895,77.52095 M47.9286342,37.3404271 C47.9261628,37.1833938 48.1469375,37.1246384 48.2240501,37.2605367 C49.5153177,39.5331864 50.1903177,42.3189946 50.8782051,44.8228615 C51.5986276,47.4457187 52.1802473,50.095206 52.7027121,52.7641375 C53.7609515,58.1685758 54.3248248,63.5419457 54.3631128,69.050157 C54.3683459,69.8365915 53.0876417,70.0458283 52.96236,69.2399496 C52.1305994,63.8820083 51.333698,58.5185719 50.4955994,53.1621101 C50.0739093,50.4680279 49.5831346,47.7843018 49.1134868,45.098251 M60.7120783,41.2989124 C60.6170079,40.9854799 61.0729234,40.8806502 61.1895431,41.1672412 C63.7809515,47.5307872 64.6585572,54.7424819 62.9948248,61.456024 C62.7402473,62.482975 61.2366558,62.0380827 61.428698,61.024024 M94.1382896,35.6444889 C94.125191,35.4098901 94.4296276,35.3729038 94.5443459,35.5343754 C95.7722332,37.265123 96.2815994,39.5830016 98.4358952,40.4774361 C99.5114586,40.9240193 100.721811,40.8462423 101.672092,41.6005515 C102.307374,42.1050447 102.794557,42.9014126 102.317726,43.6654439 C102.163923,43.9123011 101.73336,44.035941 101.524628,43.7677375 C101.21998,43.3769508 101.058783,42.9090212 100.644909,42.6160897 C100.061177,42.2028999 99.2739938,42.1773265 98.604698,41.9830956 C97.7389234,41.7320114 96.9758248,41.2926142 96.3508952,40.6397531 M114.651994,6.77744157 C114.778543,6.71297973 114.900022,6.75419303 114.980937,6.86367249 C115.096501,7.019649 115.082346,7.17139851 114.940797,7.27834176 C115.129881,7.66490145 115.353191,8.63330849 115.385092,8.77427914 C115.514388,9.34577033 115.651923,9.91387992 115.795797,10.4815668 C116.086078,11.6264514 116.340445,12.7802126 116.630937,13.9255198 C116.938966,15.1395159 117.305937,16.3406196 117.714318,17.5243926 C117.740656,17.6010423 117.769623,17.6792889 117.80003,17.758694 L117.846571,17.8786157 L117.85798,17.8604396 C117.941008,17.7291911 118.113825,17.8209171 118.093332,17.9595629 C118.074318,18.0859504 118.048754,18.2117038 118.027205,18.3380913 L118.069998,18.4513172 C118.337129,19.1705768 118.520071,19.9280901 118.029952,20.5627645 C117.846571,20.8001108 117.644811,20.9406588 117.393402,20.9825061 C116.990304,22.3118995 116.484529,23.6165649 115.94305,24.8694494 L115.784347,25.2353469 C114.987844,27.0635643 114.138363,28.867761 112.870163,30.4241578 C111.485515,32.1234142 109.580937,33.2837273 108.374811,35.1457234 C107.813684,36.0118369 107.423261,36.9225453 107.10636,37.9006744 L106.987148,38.2719486 C106.762214,38.9637845 106.502698,39.6343553 105.853966,40.0401735 C105.646923,40.1695198 105.336783,40.1283065 105.169881,39.951829 C103.839529,38.5440247 105.232205,35.9152498 106.034388,34.5522517 C107.149459,32.6568623 108.763332,31.4443457 110.379318,30.0143496 C112.121219,28.4729719 113.232275,26.4110384 114.306994,24.3797508 C114.965304,23.1353202 115.600797,21.8640482 116.269881,20.6141226 C115.570853,19.9960535 115.347091,18.7683379 115.110263,17.9149786 L115.088684,17.8384592 C114.697205,16.4718682 114.386219,15.0697703 114.18974,13.6615433 C114.000643,12.307509 113.921774,10.9729453 113.971803,9.61133419 L113.98624,9.26448263 M117.251071,13.2218924 C117.096635,13.0101195 117.352268,12.7702369 117.56417,12.8144091 C118.852523,13.0809145 120.112122,13.861066 121.268425,14.491906 L121.391916,14.5588944 C122.314945,15.0568357 123.243677,15.6667926 123.728325,16.6341429 C124.255444,17.6855146 124.212019,18.8964706 124.140131,20.0390317 L124.133325,20.1459394 C124.045226,21.5161234 124.031071,22.9397789 123.741212,24.2852349 C123.592902,24.9738142 122.969452,25.1678337 122.436423,25.005094 C121.802198,27.0084834 120.020578,28.4845539 118.71917,30.0654541 C117.059874,32.0808905 117.372128,34.8020255 117.545578,37.2293836 C117.615719,38.2121625 116.393747,38.4915676 115.764381,37.9672075 L114.313974,36.7620412 C114.072433,36.5608827 113.831212,36.3593249 113.590649,36.1569923 C113.384592,35.9835441 113.180414,35.8087809 112.977926,35.6318259 L112.675437,35.36464 C112.541283,35.244593 111.949522,34.583278 111.776494,34.5558024 C111.357395,34.4891566 110.361702,35.594099 110.020936,35.9406557 L109.977761,35.9838964 C109.336353,36.6130862 108.756846,37.2900412 108.217057,38.0079981 C108.117761,38.1398807 107.923606,38.0304013 107.994592,37.8780177 C108.478263,36.8415426 109.040664,35.8505781 109.708429,34.9230612 L109.843395,34.7384091 C110.287691,34.1394423 110.884099,33.0818455 111.668325,32.9049453 C112.625908,32.6890994 113.582074,33.6497567 114.278786,34.1829371 L114.322902,34.2163739 C114.654381,34.4651332 114.982057,34.7183308 115.309099,34.9732193 C115.274874,33.1659629 115.503043,31.3398964 116.43579,29.782456 C117.093466,28.6840686 118.078818,27.8705813 118.921987,26.9266909 C119.860649,25.8756459 120.35079,24.5838729 121.200508,23.4892897 C121.309945,23.3485304 121.46079,23.2726557 121.624099,23.2485617 C121.65675,22.368576 121.786304,21.4798567 121.886414,20.6093984 L121.915437,20.3488357 C122.016635,19.4030431 122.25579,18.2478024 121.792902,17.3620333 C121.355656,16.5254032 120.352412,15.934852 119.609497,15.3672036 L119.002894,14.8964862 M75.4381276,3.22117699 C75.0502403,3.445631 74.6877051,3.72482474 74.3587614,4.07376407 C73.3233389,5.17257425 72.5830572,6.54001065 71.8626346,7.85545487 C71.4747473,8.56390106 71.1008037,9.2801672 70.7097473,9.98692258 C70.5396769,10.2944373 70.3647473,10.5985703 70.1879163,10.9022807 C70.1061558,11.0421946 69.863198,11.3203316 69.7427755,11.4917367 C69.8765823,11.6792925 70.0149274,11.8639693 70.1560481,12.0466487 C70.209891,12.1163478 73.9241332,16.1639923 75.2188318,17.7481281 C77.201367,20.1746408 78.9734797,22.7376858 80.4884797,25.4810126 C81.9720008,28.1674862 83.1014375,31.0118384 84.4757332,33.7503042 C85.1636206,35.1213335 85.9317896,36.4826408 86.9110149,37.6691613 C86.9488318,37.715447 86.9887614,37.7591966 87.0274234,37.8048482 C87.4011426,36.7948382 88.358766,35.7134231 88.8290983,35.0924713 L88.8730572,35.0338345 C89.9397473,33.5953844 91.0662262,32.2002611 92.2172121,30.8288091 C93.2684797,29.5764881 94.3464557,28.35122 95.4505466,27.1461766 L95.8658037,26.69522 C96.635029,25.8639793 97.6121417,24.6201829 98.738198,24.0262885 C98.6175642,23.8111339 98.4779163,23.5983042 98.317353,23.388222 C97.2622825,22.0090028 95.7708594,21.0080566 94.2992154,20.1048902 L93.3448444,19.5241208 C89.7473983,17.3309843 86.2059943,15.0362048 83.0828459,12.1866564 C81.430522,10.6788834 79.8010149,9.0994627 78.4121417,7.34081691 L77.9209571,6.71899963 M81.4406628,2.13547053 C79.7560149,2.27686388 77.9367896,2.24325918 76.3799586,2.79234724 C77.7639727,4.10123961 79.0795361,5.51453902 80.4310149,6.84541182 C80.5512262,5.94527092 80.7971417,5.05612024 81.0054515,4.17838247" fill="#000"/>
    </g>
    <g transform="translate(78.592 38.043)">
      <path d="M51.0275758,15.9061419 C62.9981788,15.9061419 75.3797197,25.2080901 79.7676814,31.1439108 C83.4568702,36.1344656 85.4431941,58.7015195 85.4431941,73.9525261 C85.4431941,77.1421911 87.1990123,83.1549207 86.6866166,86.205958 C84.8089889,97.3862084 76.628565,106.762705 60.4377612,106.762705 C44.2469574,106.762705 32.6383777,100.328897 20.6041581,83.0548573 C14.7650988,83.0548573 11.9352536,78.5658008 11.8935705,71.4815998 C11.8665638,66.7587992 13.7454869,63.5382528 17.5303398,61.8199609 C16.1808544,43.1817886 17.2054605,31.4364602 20.6041581,26.5839757 C25.7022045,19.305249 39.0569728,15.9061419 51.0275758,15.9061419 Z" fill="#D08B5B"/>
      <path d="M45.9900582,11.9531061 C53.548023,11.1859045 60.9541962,11.8305229 68.4025337,13.1643546 C68.9717528,13.2677049 69.2943103,13.6420063 69.4142679,14.091971 C72.922555,14.2525973 76.4348478,14.510656 79.9384968,14.7029847 C81.2099637,14.7727303 81.9307637,16.0321667 81.3510035,17.1694427 C81.2352623,17.3953761 81.114883,17.6151804 80.9926063,17.8349847 L81.1462238,17.7842135 C82.2002228,17.4452371 83.3387647,17.278116 84.3657566,17.8161746 C85.6728523,18.5009495 86.1853604,20.0118928 85.8965344,21.4025777 C85.8225359,21.7576462 85.6983618,22.0979202 85.5571111,22.4299515 C85.8438289,22.4109299 86.1326549,22.4172705 86.4193727,22.4553135 C87.9457232,22.6582098 89.079945,23.8312039 89.1600573,25.3930826 C89.2781175,27.7515405 87.7623081,30.1442372 85.9766467,31.8327147 C86.2357468,32.3676423 86.3350439,32.9974661 86.2273139,33.635744 C86.0122756,34.8975053 85.0850809,35.6530826 84.0103109,36.1459515 C84.4585182,37.5727773 84.6703942,39.0644877 84.5453768,40.5889573 C84.5036341,41.0978888 84.0596432,41.5182646 83.5909861,41.6214035 C85.3378563,46.4431491 86.2220434,51.6199632 86.8578822,56.6642607 C87.3111493,60.2532 87.5346205,63.863063 87.5618165,67.4790552 C87.5751217,69.1116188 87.5482823,70.7460193 87.4799656,72.3788427 L87.4523999,72.9910708 C87.3680712,74.7560571 87.3638547,76.6093879 87.0476219,78.3553526 C88.12703,80.1960023 88.5613231,82.4809104 88.7447381,84.5434779 C88.9724258,87.0965894 88.6119204,89.7300141 87.8084781,92.1586403 C84.7768593,101.335259 75.6273999,107.126257 66.4374628,108.631282 C57.9310102,110.024081 48.087736,108.149404 43.1165558,100.403204 C43.0385517,100.280621 43.205101,100.179384 43.302079,100.259697 C46.8586444,103.159212 50.984218,104.452676 55.4665023,105.082499 C63.2163151,106.169051 71.9272649,104.325865 78.1465107,99.4396579 C81.1317488,97.0936697 83.2842403,93.6782489 84.2310414,90.002656 C84.7138235,88.1239632 84.8803728,86.1645346 84.6904223,84.2308908 C84.4964662,82.2695601 83.630199,80.5956658 83.0841703,78.7421237 C82.9007553,78.1163155 83.0947114,77.5351022 83.476299,77.1210669 C83.5836074,75.6160415 83.8368045,74.0985464 83.9335717,72.5981706 C84.0410909,70.8923624 84.1066565,69.1867656 84.1298469,67.4790552 C84.1741195,63.9368243 84.0265442,60.3882528 83.7292853,56.8610278 C83.1853648,50.4019515 81.7412348,44.0996971 80.8937308,37.6955718 C80.5798873,37.9777174 80.1301129,38.0935721 79.6586683,37.8470694 L79.6098255,37.8202685 L79.3526228,37.6725346 C79.3378653,37.6725346 79.3209995,37.6746481 79.3060312,37.6765503 C77.5458792,37.8479554 75.7201616,37.602789 74.0335864,37.0763155 C72.2687964,36.527016 70.6309211,35.6816149 69.1676063,34.5551178 C68.8895322,35.9688399 68.7733694,37.3975679 68.771472,38.8389769 C68.7693637,39.7393292 67.818557,40.2066247 67.0638146,39.8219671 C63.7180712,38.1182724 60.5220113,36.1550395 57.4882842,33.9485425 C57.1338926,35.7682685 56.7799227,37.5877832 56.4234228,39.4096227 C56.2865994,40.111517 55.394612,40.3947264 54.8232847,40.060793 C52.5508355,38.7354153 50.5880837,37.0004407 48.9900537,34.9374505 C48.6710099,35.5490982 48.3510291,36.1606521 48.028862,36.7708595 L47.5438155,37.6850043 C47.0652498,38.5832431 46.4243513,39.5768008 45.3765665,39.8640258 C44.2676433,40.1683703 43.3419244,39.4478771 42.9689804,38.4416384 C42.8551366,38.1290513 42.7497257,37.8075875 42.6527476,37.4842215 C41.7080547,39.6465464 40.6415067,41.7600493 39.4356055,43.7763311 C37.6267537,46.8005425 35.4550773,49.4952587 33.2901473,52.2597205 C32.632383,53.0989926 31.5065941,52.2977636 31.4159407,51.4821628 C31.3632352,51.0023977 31.3189626,50.520519 31.2808038,50.0405425 C30.0192456,52.5928086 28.7028737,55.1211922 27.2686524,57.5762372 L27.4739929,58.3829613 L27.4739929,58.3829613 C28.06577,60.7665699 28.5571958,63.1670865 29.0914185,65.5633761 C29.2638708,66.3364955 28.854033,67.4418575 27.9529803,67.5735288 C26.8765237,67.7307734 25.8580431,68.2821863 24.7554446,67.9028125 C23.5531273,67.4889886 23.3155311,66.4472431 22.7479985,65.4598145 C22.6347872,65.2630474 22.5030235,65.0823429 22.3613512,64.9107264 L22.3253006,64.9576462 L22.3253006,64.9576462 C22.2367554,65.0741002 22.0259335,64.94729 22.078639,64.8141393 L22.1404098,64.6602763 L22.1404098,64.6602763 C21.6527788,64.1414114 21.0692238,63.7085659 20.5326821,63.2429613 C19.2576313,63.0275953 17.8234099,63.2634622 16.9449151,63.7827499 C14.9442153,64.9661002 14.0252427,67.4050826 14.0062687,69.6477205 C13.9830783,72.2726912 14.7945318,75.2231413 16.1648741,77.4676814 C16.7680355,78.4546873 17.5944573,79.3463742 18.6863039,79.7840806 C19.7701393,80.2192509 20.9444172,80.084198 22.0470157,80.4940063 C22.7764595,80.7668595 23.2255101,81.5784446 22.7848924,82.3137323 C22.7553773,82.3646677 22.7216458,82.4109534 22.6898117,82.4597753 L23.017749,82.8961041 C23.2433129,83.1983507 23.4784964,83.5219515 23.6977512,83.8587029 C24.2585374,84.5056462 24.8488387,85.1291295 25.420166,85.7652939 C26.4761729,86.9380767 27.5009781,88.1429847 28.5401192,89.3326755 C29.5206519,90.4551569 30.5578956,91.5095836 31.6267626,92.5473135 C32.6365994,93.5303037 33.8973144,94.356472 34.8249307,95.4049808 C35.7270376,96.4279162 35.9718018,98.2136149 34.4874048,98.805607 C32.8452516,99.4621139 31.3914993,97.9234593 30.2860557,96.8976632 L30.2395545,96.8546325 C28.2131345,94.9852391 26.3832004,92.8489104 24.9300051,90.496793 C23.4905132,91.4791491 21.4084362,91.5729886 19.9750582,90.5908438 C19.2207374,90.0740924 18.6420313,89.205654 18.3607949,88.2609182 C18.095581,88.320519 17.8305779,88.3553918 17.5721102,88.3513761 C17.4390816,88.4287303 17.3056314,88.503971 17.1707053,88.5741393 C16.1016275,89.1318928 14.7884179,88.8827108 14.2993112,87.6968243 C13.853927,86.620284 14.3128792,85.3976604 14.7140543,84.3604172 L14.7968508,84.1461393 C15.0245385,83.5545699 15.2754165,82.9099515 15.5874329,82.3033761 C14.7188467,81.6481902 13.9765428,80.8342802 13.3485044,79.9087773 C11.2381773,76.7913605 10.1840678,72.2323233 10.6499842,68.5127695 C10.9303773,66.2682294 11.9821677,63.9433761 13.7045826,62.4298967 L13.6415468,62.2650434 L13.6415468,62.2650434 C13.1587647,61.0373096 12.7200443,59.804926 12.4356456,58.5074466 C12.102547,56.9899515 11.9400033,55.4175053 11.7926388,53.8725346 C11.4806224,50.6092861 11.5649512,47.272065 11.9802703,44.0214975 C12.7603113,37.9029065 14.7378207,31.8963311 18.2480052,26.8049025 C17.2527151,25.610562 16.464452,24.2050826 16.8753439,22.5884642 C17.0631862,21.8464133 17.4909438,21.1428282 18.1362696,20.7178027 C18.4923478,20.4834153 18.9163106,20.4474857 19.2725996,20.2530434 L19.3797301,20.1939098 C19.5362291,20.1023576 19.4165228,20.1120604 19.3231969,19.6866247 C18.9542586,17.9871569 19.2599503,16.3451765 21.1257241,15.7808712 C22.8818704,15.250382 24.543147,16.3768791 25.5824989,17.7189534 C28.3021013,15.7848869 31.8860735,14.7727303 35.0378608,13.9125346 C38.621833,12.9379984 42.298356,12.3295209 45.9900582,11.9531061 Z M16.6142199,68.9543436 C16.6013597,67.5699992 17.9105637,66.716144 19.1988963,66.9425002 C20.0639738,67.0934194 20.7856268,67.6109969 21.4632761,68.1459648 L21.7936643,68.4080223 C22.6188444,69.0574741 23.5662124,69.7576297 24.0581301,70.6770599 C24.779141,72.0339288 23.2551095,73.859784 21.8320617,72.9087076 C20.8558861,72.2528877 20.2301758,71.2020775 19.5898678,70.2259205 L19.523562,70.1252243 C19.2326278,69.6877292 18.9775333,69.2227585 18.5788691,68.871917 L18.4927518,68.7963136 C18.361733,68.6843567 18.2210277,68.582175 18.0518144,68.5337566 C17.7253805,68.4396716 17.1207538,68.5714301 16.9768053,68.961021 L16.9639734,69.0008407 C16.9112679,69.1976078 16.6163281,69.1551264 16.6142199,68.9543436 Z" fill="#000"/>
    </g>
    <path d="M37.789841,48.8044324 C36.3559842,49.3683303 34.6619225,49.5015257 33.1819221,49.021074 C31.7667682,48.561558 30.4817514,47.5388973 29.7042095,46.2527605 C29.0116692,45.1072252 28.7224504,43.7478061 29.1317437,42.3925909 C29.1513241,42.3277234 29.2148444,42.28624 29.2761213,42.2700587 C29.6109711,42.5750308 29.81785,42.8779272 30.024548,43.1793441 C30.3730223,43.6875061 30.7222705,44.1904523 31.2016895,44.62491 C31.8992221,45.2569587 32.8390149,45.7702988 33.7717239,45.9395936 C34.6849483,46.1057208 35.6196054,45.9589078 36.4373139,45.5216207 C36.9345995,45.2558871 37.3366756,44.9005342 37.7348211,44.5436031 C38.1683684,44.1549348 38.5950468,43.7603501 39.1921487,43.5408786 C39.6706421,43.3649711 40.1732602,43.5134062 40.5593818,43.8076605 C40.9743842,44.1239242 41.2728113,44.6189803 41.2562668,45.1365403 C41.230644,45.9384126 40.8797721,46.6073085 40.3706676,47.1591719 C39.6823908,47.9052561 38.709212,48.4428278 37.789841,48.8044324 Z M36.0875289,28.8212381 C37.6828906,29.7913456 40.1137318,32.053447 38.3974899,34.4584617 C36.3773089,36.5790425 33.4687045,34.1476518 32.0353946,33.0480284 C30.7063626,32.1958141 29.2131206,34.3876454 30.4461973,35.3827493 C40.8033244,43.0537581 45.006466,29.0749077 36.8944406,27.6806296 C36.0012775,27.5269861 35.6695544,28.5211248 36.0875289,28.8212381 Z M19.3073239,15.3796016 C21.4816901,15.2756172 23.3978873,16.2524783 25.47,16.6963139 C27.3849296,17.1067562 29.2715493,16.8603217 31.1338732,16.3382865 C34.1562676,15.4909832 35.4057042,20.1195546 32.424507,21.0215977 C30.2535211,21.6784744 27.9676056,21.724126 25.7397887,21.3855429 C23.7608451,21.08458 22.1019718,20.1208227 20.2151408,19.5596877 C18.5958778,19.0783693 16.6910135,19.278405 14.9809817,19.505011 L14.3171831,19.5943491 C13.3305634,19.7272885 12.338662,19.8606505 11.3617606,20.0536133 C10.5141549,20.2212141 9.66802817,20.5278834 8.80288732,20.5633902 C8.70464789,20.5676172 8.62140845,20.4399616 8.68330986,20.3547875 C9.68828638,18.9745479 11.6252091,17.8854788 13.1659323,17.1591007 L13.2703521,17.1101378 C15.1721831,16.2231006 17.1897887,15.480627 19.3073239,15.3796016 Z M18.5107028,25.5572978 L18.5104303,25.5096835 C18.5133881,24.1619478 19.2980381,21.0847736 21.2374979,21.0847736 C22.4491129,21.0847736 23.1847181,23.1790024 23.3120629,25.3378515 L23.316486,25.4258734 C23.3727209,26.7680588 23.0045415,29.7018423 21.2374979,29.7018423 C19.4517543,29.7018423 18.5290635,26.9231839 18.5107028,25.5572978 L18.5107028,25.5572978 Z M47.0646375,25.5572978 L47.0649099,25.5096835 C47.0619522,24.1619478 46.2773022,21.0847736 44.3378423,21.0847736 C43.1565178,21.0847736 42.4276999,23.0755998 42.2739666,25.1760907 L42.2632773,25.3378515 C42.1867783,26.6347218 42.5310899,29.7018423 44.3378423,29.7018423 C46.1235859,29.7018423 47.0462767,26.9231839 47.0646375,25.5572978 L47.0646375,25.5572978 Z M47.0349061,13.7381013 L47.1736268,13.7411507 C49.4401056,13.819773 51.7714437,15.1629041 52.3765141,17.4190685 C52.4077817,17.5361566 52.2634859,17.6149902 52.1779225,17.5346771 C50.3143054,15.7891948 47.8079587,17.4570512 45.9418217,18.3312784 L45.2563844,18.6480514 C42.8506313,19.7677376 40.1144405,21.0841252 37.4432746,20.249683 C36.1746127,19.8534012 35.368838,18.5493699 35.7307394,17.2322348 C36.0526923,16.0603006 37.4667238,15.075407 38.6914715,15.4984056 L38.747007,15.5186067 C39.7420775,15.8993894 40.965581,15.5135871 41.9932707,15.1332153 L42.8374775,14.8160754 C44.1949825,14.3007631 45.5587645,13.7242367 47.0349061,13.7381013 L47.0349061,13.7381013 Z" transform="translate(112.183 77.354)" fill="#000"/>
  </g>
</svg>